<?xml version="1.0" encoding="utf-8"?>
<!-- Generator: Adobe Illustrator 18.1.1, SVG Export Plug-In . SVG Version: 6.00 Build 0)  -->
<!DOCTYPE svg PUBLIC "-//W3C//DTD SVG 1.1//EN" "http://www.w3.org/Graphics/SVG/1.1/DTD/svg11.dtd">
<svg version="1.1" id="Layer_1" xmlns="http://www.w3.org/2000/svg" xmlns:xlink="http://www.w3.org/1999/xlink" x="0px" y="0px"
	 viewBox="0 0 1623 144" enable-background="new 0 0 1623 144" xml:space="preserve">
<g>
	<path fill="#FFFFFF" d="M26.9,100.5c-5,0-9,0.1-12.6,0.5c-0.9,0.1-0.3-1.6-0.1-1.6c7.7-0.8,8.1-0.7,8.1-13.6V60
		c0-12.9-0.4-12.9-8.1-13.8c-0.3,0-0.8-1.5,0.1-1.5c3.6,0.4,6.1,0.5,11.2,0.5c2,0,7.7-0.3,10.5-0.3c9.8,0,17.9,4.5,17.9,13
		c0,4.9-4.6,10.1-11,12c9.5,0.4,16.3,6.1,16.3,13.7c0,9.6-8.3,17.2-21.3,17.2C34.8,100.8,29,100.5,26.9,100.5z M31.8,69.9
		c10.4,0,14.7-2.8,14.7-10.9c0-8.7-5.2-11.7-12.6-11.7c-1.3,0-2.1,0.1-3.4,0.3c-0.6,2.6-0.7,5.8-0.7,12.3v26.3
		c0,11.2,0.6,12.2,7.1,12.2c9.5,0,14.5-3.3,14.5-13.4c0-8.4-7.4-14.8-19.6-13.5C31.4,71.6,31.4,69.9,31.8,69.9z"/>
	<path fill="#FFFFFF" d="M103.4,75.3c-2.2,0.3-5,0.5-6.8,0.5c-1.7,0-2.2,0-3.4-0.2v10.1c0,12.4,0,13,8,13.6c0.3,0,0.7,1.7-0.2,1.6
		c-2.7-0.3-6.9-0.5-10.7-0.5c-5,0-9,0.1-12.6,0.5c-0.7,0.2-0.3-1.6-0.1-1.6c7.7-0.8,8.1-0.7,8.1-13.6V59.9c0-9.7-0.2-12.7-5.1-12.7
		c-0.9,0-2.1,0.2-3.3,0.3c-0.4,0.1-0.9-1.3-0.2-1.5c3.5-1.1,12.1-1.5,21.6-1.5c12.6,0,22.9,3.9,22.9,13.4c0,4.8-3,11.9-12,15.6
		c4.6,12.4,18.1,27.3,27.8,27.3c0.3,0,0.7,1.6-0.1,1.6C117.3,102.4,107.2,88.9,103.4,75.3z M93.9,47.1c-0.4,1.8-0.6,5.8-0.6,12v14.3
		c1.2,0.1,1.8,0,3.3,0c12.9,0,17.5-4.6,17.5-11.8c0-11.7-7.7-14.7-16.3-14.7C96.4,46.9,95.4,47,93.9,47.1z"/>
	<path fill="#FFFFFF" d="M148,101c-0.9,0.1-0.3-1.6-0.1-1.6c7.7-0.8,8.1-0.7,8.1-13.6V60c0-12.9-0.4-12.9-8.1-13.8
		c-0.3,0-0.8-1.5,0.1-1.5c3.7,0.4,7.7,0.5,12.7,0.5c3.6,0,7.9-0.2,10.6-0.5c0.9-0.1,0.5,1.5,0.1,1.5c-7.8,0.7-7.8,1.4-7.8,13.8v25.8
		c0,12.4,0,13,7.8,13.6c0.4,0,0.8,1.7-0.1,1.6c-2.7-0.3-7-0.5-10.6-0.5C155.6,100.5,151.7,100.6,148,101z"/>
	<path fill="#FFFFFF" d="M245,95.8c-7.6,4-13.8,6.4-22.1,6.4c-19.8,0-31.4-13.2-31.4-28.1c0-14.4,13.6-30.5,32.6-30.5
		c8.3,0,17,3.9,18.7,5.2c0.6,0.4,1,6.4,0.6,11.7c-0.1,0.6-1.5,0.3-1.5,0.1c-0.5-6.8-8.1-14.4-20-14.4c-12.9,0-22.6,9.2-22.6,24.8
		c0,18.9,12,28.6,24.3,28.6c9.2,0,11.4-2.9,11.9-4.3c0.3-1.1,0.5-3.6,0.5-5.5c0-11.1-0.5-11.8-9.6-12.5c-0.4,0-0.9-1.7,0.1-1.5
		c3.6,0.5,9.2,0.5,14.2,0.5c3.7,0,7.9-0.2,10.7-0.5c0.7-0.2,0.5,1.5,0.1,1.5c-7.9,0.6-7.9,2-7.9,12.9
		C243.6,92.7,243.7,94.8,245,95.8z"/>
	<path fill="#FFFFFF" d="M308.6,101c-0.7,0.2-0.4-1.5,0-1.6c6.6-0.7,7.2-0.8,7.2-13.6V73.6h-32.6v12.1c0,12.3,0.3,13.2,7.3,13.7
		c0.3,0.1,0.6,1.6-0.3,1.5c-2.7-0.3-6.1-0.5-9.9-0.5c-4.9,0-9.7,0.1-13.4,0.5c-0.7,0.2-0.4-1.5,0-1.6c8.7-0.9,8.8-0.6,8.8-13.6V60
		c0-13.1-0.1-12.7-8.8-13.8c-0.4-0.1-0.7-1.6,0-1.5c3.7,0.4,8.5,0.5,13.4,0.5c3.8,0,7.2-0.2,9.9-0.5c0.9-0.1,0.4,1.5,0.2,1.5
		c-7.1,0.6-7.2,1.5-7.2,13.8v11.3h32.6V60c0-12.8-0.6-13-7.2-13.8c-0.4-0.1-0.7-1.6,0-1.5c3.7,0.4,6.9,0.5,12,0.5
		c3.6,0,8.7-0.2,11.4-0.5c0.7-0.2,0.5,1.5,0.1,1.5c-8.9,0.8-8.7,1.3-8.7,13.8v25.8c0,12.5-0.3,12.9,8.7,13.6c0.4,0,0.6,1.8-0.1,1.6
		c-2.8-0.3-7.8-0.5-11.4-0.5C315.5,100.5,312.3,100.6,308.6,101z"/>
	<path fill="#FFFFFF" d="M397.5,100.5c-5.1,0-9.5,0.1-13.2,0.5c-0.7,0.2-0.3-1.6-0.1-1.6c4-0.4,6-0.3,6-2.7c0-2.6-1.6-6.5-3.3-10.8
		l-2.6-6.9h-19.6l-3,6.9c-2.2,5.1-3.7,8.4-3.7,10.8c0,2,1.6,2.3,5.5,2.7c0.4,0,0.6,1.8-0.1,1.6c-2.7-0.3-4.6-0.5-8.3-0.5
		c-5.1,0-5.2,0.1-8.8,0.5c-0.7,0.2-0.3-1.6-0.1-1.6c5.8-0.4,8-4,12.3-13.7l18.7-41.5c0.3-0.7,1.5-0.5,1.6,0l15.9,41.5
		c4,10.4,5.6,13.2,12.7,13.8c0.3,0.1,0.6,1.6-0.3,1.5C404.7,100.7,401.1,100.5,397.5,100.5z M365.8,76.7h17.7l-8-22L365.8,76.7z"/>
	<path fill="#FFFFFF" d="M471,101c-0.7,0.2-0.4-1.5,0-1.6c6.7-0.7,7.3-0.9,7.1-13.6l-0.5-30.5l-20,45.6c-0.2,0.4-1.2,0.6-1.5-0.1
		l-20.5-43.1L435,85.8c-0.2,11.4-0.2,12.9,7.8,13.6c0.3,0,0.5,1.8-0.2,1.6c-2.7-0.3-5-0.5-8.7-0.5c-5,0-7.1,0-10.8,0.5
		c-0.7,0.2-0.4-1.5,0-1.6c7.7-0.9,8-1.6,8.3-13.6l0.6-30.2c0.1-5.9-3-8.7-9.5-9.4c-0.4-0.1-0.7-1.7,0-1.5c4.3,0.6,8,0.6,15.4,0.6
		L459,90.4l12.9-29.5c2.5-5.7,4.9-11.3,6.1-15.8c5.7,0.4,11.2,0.2,15.4-0.4c0.9-0.1,0.4,1.5,0.2,1.5c-8.9,0.8-8.9,1.3-8.6,13.7
		l0.5,25.9c0.3,12.4,0,12.8,9,13.6c0.3,0,0.6,1.8-0.1,1.6c-2.8-0.3-7.7-0.5-11.4-0.5C478,100.5,474.8,100.5,471,101z"/>
	<path fill="#FFFFFF" d="M573.3,73.1v12.6c0,12.3,0,13,8,13.6c0.3,0,0.7,1.7-0.2,1.6c-2.7-0.3-6.9-0.5-10.7-0.5c-5,0-9,0.1-12.6,0.5
		c-0.7,0.2-0.3-1.6-0.1-1.6c7.7-0.9,8.1-0.7,8.1-13.6V73.9L558.1,62c-8.4-12.9-10.5-15-17.8-15.8c-0.4-0.1-0.7-1.6,0-1.5
		c3.6,0.4,7.7,0.5,12.6,0.5c3.7,0,7.9-0.2,10.6-0.5c0.9-0.1,0.4,1.5,0.2,1.5c-7.6,0.7-5.8,3.2,2.5,15.5l5.8,8.6l7.4-10.6
		c8.3-12,9.1-12.6,2.1-13.5c-0.4-0.1-0.7-1.6,0-1.5c3.6,0.4,5.5,0.5,10.6,0.5c3.6,0,5.1-0.2,7.8-0.5c0.9-0.1,0.5,1.5,0.1,1.5
		c-7.4,0.6-9,2.5-17.2,13.8L573.3,73.1z"/>
	<path fill="#FFFFFF" d="M612.7,73.7c0-14.3,13.3-30.2,32.3-30.2c18.3,0,30.9,13.6,30.9,28.4c0,14.4-13.4,30.3-32.5,30.3
		C625.2,102.2,612.7,88.6,612.7,73.7z M620.5,70.9c0,18.9,12.7,28.6,25,28.6c13,0,22.7-9.1,22.7-24.7c0-18.9-12.9-28.7-25.1-28.7
		C630.1,46.1,620.5,55.3,620.5,70.9z"/>
	<path fill="#FFFFFF" d="M748.3,80.7c0,11.7-7.9,21.5-23.2,21.5c-13.2,0-23.8-8.3-23.8-22.1V60c0-12.9-0.3-12.9-7.9-13.8
		c-0.6,0-0.9-1.5,0-1.5c3.7,0.4,7.7,0.5,12.6,0.5c3.7,0,8.1-0.2,10.7-0.5c0.9-0.1,0.4,1.5,0.2,1.5c-8,0.7-8,1.4-8,13.8v18.4
		c0,13.7,9.6,19.6,18.5,19.6c11.7,0,17.8-6.3,17.8-18.1V59.2c0-10.9-0.8-12.1-8.4-13c-0.4-0.1-0.8-1.5,0.1-1.5
		c3.7,0.4,5.8,0.5,10.9,0.5c3.6,0,6.1-0.2,8.8-0.5c0.9-0.1,0.6,1.5,0.2,1.5c-8,0.7-8.3,2.6-8.3,13V80.7z"/>
	<path fill="#FFFFFF" d="M830.6,85.8c0,4.3,0.2,12.1,0.6,15.7c0,0.3-1,0.6-1.5,0.1l-42.5-44.4v28.6c0,11.4,0,13,8,13.6
		c0.3,0,0.7,1.7-0.2,1.6c-2.7-0.3-5-0.5-8.6-0.5c-5.1,0-7.1,0.1-10.7,0.5c-0.9,0.1-0.3-1.6-0.1-1.6c7.7-0.8,8.1-1.6,8.1-13.6V55.6
		c0-3.9-5.6-8.9-9.6-9.4c-0.3,0-0.8-1.5,0.1-1.5c3.6,0.4,7,0.6,12,0.6l40.9,43V60c0-12-0.3-12.9-8.1-13.8c-0.3,0-0.6-1.6,0.1-1.5
		c3.6,0.4,5.7,0.5,10.7,0.5c3.7,0,6.1-0.2,8.7-0.5c0.9-0.1,0.7,1.4,0.1,1.5c-7.9,0.7-7.9,2.3-7.9,13.8V85.8z"/>
	<path fill="#FFFFFF" d="M909.4,95.8c-7.6,4-13.8,6.4-22.1,6.4c-19.8,0-31.4-13.2-31.4-28.1c0-14.4,13.6-30.5,32.6-30.5
		c8.3,0,17,3.9,18.7,5.2c0.6,0.4,1,6.4,0.6,11.7c-0.1,0.6-1.5,0.3-1.5,0.1c-0.5-6.8-8.1-14.4-20-14.4c-12.9,0-22.6,9.2-22.6,24.8
		c0,18.9,12,28.6,24.3,28.6c9.2,0,11.4-2.9,11.9-4.3c0.3-1.1,0.5-3.6,0.5-5.5c0-11.1-0.5-11.8-9.6-12.5c-0.4,0-0.9-1.7,0.1-1.5
		c3.6,0.5,9.2,0.5,14.2,0.5c3.7,0,7.9-0.2,10.7-0.5c0.7-0.2,0.5,1.5,0.1,1.5c-7.9,0.6-7.9,2-7.9,12.9
		C908,92.7,908.1,94.8,909.4,95.8z"/>
	<path fill="#FFFFFF" d="M1013.9,80.7c0,11.7-7.9,21.5-23.2,21.5c-13.2,0-23.8-8.3-23.8-22.1V60c0-12.9-0.3-12.9-7.9-13.8
		c-0.6,0-0.9-1.5,0-1.5c3.7,0.4,7.7,0.5,12.6,0.5c3.7,0,8.1-0.2,10.7-0.5c0.9-0.1,0.4,1.5,0.2,1.5c-8,0.7-8,1.4-8,13.8v18.4
		c0,13.7,9.6,19.6,18.5,19.6c11.7,0,17.8-6.3,17.8-18.1V59.2c0-10.9-0.8-12.1-8.4-13c-0.4-0.1-0.8-1.5,0.1-1.5
		c3.7,0.4,5.8,0.5,10.9,0.5c3.6,0,6.1-0.2,8.8-0.5c0.9-0.1,0.6,1.5,0.2,1.5c-8,0.7-8.3,2.6-8.3,13V80.7z"/>
	<path fill="#FFFFFF" d="M1096.3,85.8c0,4.3,0.2,12.1,0.6,15.7c0,0.3-1,0.6-1.5,0.1l-42.5-44.4v28.6c0,11.4,0,13,8,13.6
		c0.3,0,0.7,1.7-0.2,1.6c-2.7-0.3-5-0.5-8.6-0.5c-5.1,0-7.1,0.1-10.8,0.5c-0.9,0.1-0.3-1.6-0.1-1.6c7.7-0.8,8.1-1.6,8.1-13.6V55.6
		c0-3.9-5.6-8.9-9.6-9.4c-0.3,0-0.8-1.5,0.1-1.5c3.6,0.4,7,0.6,12,0.6l40.9,43V60c0-12-0.3-12.9-8.1-13.8c-0.3,0-0.6-1.6,0.1-1.5
		c3.6,0.4,5.7,0.5,10.7,0.5c3.7,0,6.1-0.2,8.7-0.5c0.9-0.1,0.7,1.4,0.1,1.5c-7.9,0.7-7.9,2.3-7.9,13.8V85.8z"/>
	<path fill="#FFFFFF" d="M1124.6,101c-0.9,0.1-0.3-1.6-0.1-1.6c7.7-0.8,8.1-0.7,8.1-13.6V60c0-12.9-0.4-12.9-8.1-13.8
		c-0.3,0-0.8-1.5,0.1-1.5c3.7,0.4,7.7,0.5,12.7,0.5c3.6,0,7.9-0.2,10.6-0.5c0.9-0.1,0.5,1.5,0.1,1.5c-7.8,0.7-7.8,1.4-7.8,13.8v25.8
		c0,12.4,0,13,7.8,13.6c0.4,0,0.8,1.7-0.1,1.6c-2.7-0.3-7-0.5-10.6-0.5C1132.2,100.5,1128.3,100.6,1124.6,101z"/>
	<path fill="#FFFFFF" d="M1198.7,101.6c-0.3,0.5-1.2,0.6-1.5-0.1l-17.5-41.5c-4.3-10.1-5.2-13.2-12.8-13.8c-0.3,0-0.6-1.6,0.1-1.5
		c2.7,0.3,6.3,0.5,9.9,0.5c5.1,0,9.5-0.1,13.2-0.5c0.7-0.2,0.5,1.4,0.1,1.5c-4,0.5-5.9,0.5-5.9,2.8c0,1.6,1.3,5.3,3.5,10.8
		l12.9,31.1l13.8-31.1c2.8-6.4,3.7-8.9,3.7-10.8s-1.7-2.5-5.7-2.8c-0.3,0-0.8-1.5,0.1-1.5c2.7,0.3,4.6,0.5,8.3,0.5
		c5.1,0,5-0.1,8.6-0.5c0.9-0.1,0.6,1.4,0.2,1.5c-6.1,0.7-7.2,3-12.1,13.8L1198.7,101.6z"/>
	<path fill="#FFFFFF" d="M1281,100.9c-3.2,0-8.7-0.4-15-0.4c-8.7,0-17.5,0.1-23.8,0.5c-0.8,0.1-0.3-1.6-0.1-1.6
		c8.7-0.9,8.9-0.6,8.9-13.6V60c0-13.1-0.2-12.7-8.9-13.8c-0.3,0-0.8-1.6,0.1-1.5c6.3,0.4,14.7,0.6,23.5,0.6c6.4,0,12.2-0.2,17.3-0.6
		c-0.5,1.6-0.6,3.2-0.6,5c0,0.9,0,2.6,0.1,3.3c0.1,0.4-1.5,0.3-1.5,0c-0.7-3.8-2.5-4.9-13.8-4.9h-8.3c-0.3,2.1-0.4,6.1-0.4,11.5v11
		h8.9c9.5,0,8.8-0.7,9.3-2.9c0.1-0.3,1.5,0,1.6,0.2c-0.3,1.3-0.5,3.4-0.5,5.3c0,0.9,0,2.7,0.1,3.4c0.2,0.4-1.5,0.3-1.5,0.1
		c-0.5-2.7-1-3.7-8.9-3.7h-8.9v12.6c0,11.2,1.4,12.2,5.3,12.2h4.6c13.2,0,13.9-1.1,15.2-6.8c0-0.2,1.6-0.2,1.5,0.3
		c-0.3,2.2-1.1,6.2-1.6,8C1283,100.7,1282.5,100.9,1281,100.9z"/>
	<path fill="#FFFFFF" d="M1331.7,75.3c-2.2,0.3-5,0.5-6.8,0.5c-1.7,0-2.1,0-3.4-0.2v10.1c0,12.4,0,13,8,13.6c0.3,0,0.7,1.7-0.2,1.6
		c-2.7-0.3-6.9-0.5-10.7-0.5c-5,0-9,0.1-12.6,0.5c-0.7,0.2-0.3-1.6-0.1-1.6c7.7-0.8,8.1-0.7,8.1-13.6V59.9c0-9.7-0.2-12.7-5.1-12.7
		c-0.9,0-2.1,0.2-3.3,0.3c-0.4,0.1-0.9-1.3-0.2-1.5c3.5-1.1,12.1-1.5,21.6-1.5c12.6,0,22.9,3.9,22.9,13.4c0,4.8-3,11.9-12,15.6
		c4.6,12.4,18.1,27.3,27.8,27.3c0.3,0,0.7,1.6-0.1,1.6C1345.5,102.4,1335.5,88.9,1331.7,75.3z M1322.1,47.1c-0.4,1.8-0.6,5.8-0.6,12
		v14.3c1.2,0.1,1.8,0,3.3,0c12.9,0,17.5-4.6,17.5-11.8c0-11.7-7.7-14.7-16.3-14.7C1324.6,46.9,1323.6,47,1322.1,47.1z"/>
	<path fill="#FFFFFF" d="M1375.7,96.4c-0.4-0.3,0.2-5.3,0.5-11.4c0-0.4,1.5-0.3,1.5-0.1c0.6,8.8,5.4,14.5,14.4,14.5
		c5.8,0,11.4-3.2,11.4-10.1c0-14.3-25.9-14.4-25.9-30c0-7.9,7-15.9,16.9-15.9c5,0,8.3,1.1,11.3,2.8c0.7,0.3,1.3,3.6,1.3,9.4
		c0,0.4-1.7,0.3-1.7,0.1c-1-6.4-5.2-9.6-11.5-9.6c-5.4,0-10.3,3.4-10.3,8.8c0,13.7,25.4,13.4,25.4,29.8c0,9.5-7.3,17.5-17.6,17.5
		C1385.3,102.2,1380.3,100.2,1375.7,96.4z"/>
	<path fill="#FFFFFF" d="M1430.7,101c-0.9,0.1-0.3-1.6-0.1-1.6c7.7-0.8,8.1-0.7,8.1-13.6V60c0-12.9-0.4-12.9-8.1-13.8
		c-0.3,0-0.8-1.5,0.1-1.5c3.7,0.4,7.7,0.5,12.7,0.5c3.6,0,7.9-0.2,10.6-0.5c0.9-0.1,0.5,1.5,0.1,1.5c-7.8,0.7-7.8,1.4-7.8,13.8v25.8
		c0,12.4,0,13,7.8,13.6c0.4,0,0.8,1.7-0.1,1.6c-2.7-0.3-7-0.5-10.6-0.5C1438.4,100.5,1434.4,100.6,1430.7,101z"/>
	<path fill="#FFFFFF" d="M1530.1,54.3c0.1,0.3-1.5,0.3-1.5,0.1c-0.8-3.8-2.1-5.8-13.4-5.8h-9v37.2c0,12.4,0,13,8,13.6
		c0.4,0,0.7,1.7-0.2,1.6c-2.7-0.3-7-0.5-10.6-0.5c-5.1,0-9,0.1-12.7,0.5c-0.7,0.2-0.4-1.5,0-1.6c7.6-0.8,7.9-0.7,7.9-13.6V48.6h-9.5
		c-10.9,0-12.7,1.9-13.8,5.8c-0.3,0.1-1.5,0.1-1.5-0.2c0.3-1.7,0.4-4.6,0.4-7.1c0-1.5-0.2-3.2-0.4-4.4c-0.2-0.3,1.2-0.3,1.5-0.2
		c0.7,2.8,1.2,3,13.7,3h26.1c12.6,0,13.3-0.1,14-3c0-0.2,1.6-0.3,1.5,0.2c-0.4,2-0.7,4.1-0.7,7.1
		C1529.9,51.2,1529.9,53.3,1530.1,54.3z"/>
	<path fill="#FFFFFF" d="M1577.9,73.1v12.6c0,12.3,0,13,8,13.6c0.3,0,0.7,1.7-0.2,1.6c-2.7-0.3-6.9-0.5-10.7-0.5
		c-5,0-9,0.1-12.6,0.5c-0.7,0.2-0.3-1.6-0.1-1.6c7.7-0.9,8.1-0.7,8.1-13.6V73.9l-7.7-11.9c-8.4-12.9-10.5-15-17.8-15.8
		c-0.4-0.1-0.7-1.6,0-1.5c3.6,0.4,7.7,0.5,12.6,0.5c3.7,0,7.9-0.2,10.6-0.5c0.9-0.1,0.4,1.5,0.2,1.5c-7.6,0.7-5.8,3.2,2.5,15.5
		l5.8,8.6l7.4-10.6c8.3-12,9.1-12.6,2.1-13.5c-0.4-0.1-0.7-1.6,0-1.5c3.6,0.4,5.5,0.5,10.6,0.5c3.6,0,5.1-0.2,7.8-0.5
		c0.9-0.1,0.5,1.5,0.1,1.5c-7.4,0.6-9,2.5-17.2,13.8L1577.9,73.1z"/>
</g>
</svg>
