<svg id="Layer_1" data-name="Layer 1" xmlns="http://www.w3.org/2000/svg" viewBox="0 0 2061.08 113.81"><defs><style>.cls-1{fill:#fff;}</style></defs><title>full3</title><path class="cls-1" d="M26.9,100.5a115.74,115.74,0,0,0-12.6.5c-0.9.1-.3-1.6-0.1-1.6,7.7-.8,8.1-0.7,8.1-13.6V60c0-12.9-.4-12.9-8.1-13.8-0.3,0-.8-1.5.1-1.5a89,89,0,0,0,11.2.5c2,0,7.7-.3,10.5-0.3,9.8,0,17.9,4.5,17.9,13,0,4.9-4.6,10.1-11,12,9.5,0.4,16.3,6.1,16.3,13.7,0,9.6-8.3,17.2-21.3,17.2C34.8,100.8,29,100.5,26.9,100.5Zm4.9-30.6c10.4,0,14.7-2.8,14.7-10.9,0-8.7-5.2-11.7-12.6-11.7a19.53,19.53,0,0,0-3.4.3c-0.6,2.6-.7,5.8-0.7,12.3V86.2c0,11.2.6,12.2,7.1,12.2,9.5,0,14.5-3.3,14.5-13.4,0-8.4-7.4-14.8-19.6-13.5C31.4,71.6,31.4,69.9,31.8,69.9Z" transform="translate(456.04 -15.64)"/><path class="cls-1" d="M103.4,75.3a57.35,57.35,0,0,1-6.8.5,16.73,16.73,0,0,1-3.4-.2V85.7c0,12.4,0,13,8,13.6,0.3,0,.7,1.7-0.2,1.6-2.7-.3-6.9-0.5-10.7-0.5a115.74,115.74,0,0,0-12.6.5c-0.7.2-.3-1.6-0.1-1.6,7.7-.8,8.1-0.7,8.1-13.6V59.9c0-9.7-.2-12.7-5.1-12.7-0.9,0-2.1.2-3.3,0.3-0.4.1-.9-1.3-0.2-1.5,3.5-1.1,12.1-1.5,21.6-1.5,12.6,0,22.9,3.9,22.9,13.4,0,4.8-3,11.9-12,15.6,4.6,12.4,18.1,27.3,27.8,27.3,0.3,0,.7,1.6-0.1,1.6C117.3,102.4,107.2,88.9,103.4,75.3ZM93.9,47.1q-0.6,2.7-.6,12V73.4c1.2,0.1,1.8,0,3.3,0,12.9,0,17.5-4.6,17.5-11.8,0-11.7-7.7-14.7-16.3-14.7C96.4,46.9,95.4,47,93.9,47.1Z" transform="translate(456.04 -15.64)"/><path class="cls-1" d="M148,101c-0.9.1-.3-1.6-0.1-1.6,7.7-.8,8.1-0.7,8.1-13.6V60c0-12.9-.4-12.9-8.1-13.8-0.3,0-.8-1.5.1-1.5a118.84,118.84,0,0,0,12.7.5c3.6,0,7.9-.2,10.6-0.5,0.9-.1.5,1.5,0.1,1.5-7.8.7-7.8,1.4-7.8,13.8V85.8c0,12.4,0,13,7.8,13.6,0.4,0,.8,1.7-0.1,1.6-2.7-.3-7-0.5-10.6-0.5A117.7,117.7,0,0,0,148,101Z" transform="translate(456.04 -15.64)"/><path class="cls-1" d="M245,95.8c-7.6,4-13.8,6.4-22.1,6.4-19.8,0-31.4-13.2-31.4-28.1,0-14.4,13.6-30.5,32.6-30.5,8.3,0,17,3.9,18.7,5.2,0.6,0.4,1,6.4.6,11.7-0.1.6-1.5,0.3-1.5,0.1-0.5-6.8-8.1-14.4-20-14.4-12.9,0-22.6,9.2-22.6,24.8,0,18.9,12,28.6,24.3,28.6,9.2,0,11.4-2.9,11.9-4.3a27.16,27.16,0,0,0,.5-5.5c0-11.1-.5-11.8-9.6-12.5-0.4,0-.9-1.7.1-1.5a122,122,0,0,0,14.2.5c3.7,0,7.9-.2,10.7-0.5,0.7-.2.5,1.5,0.1,1.5-7.9.6-7.9,2-7.9,12.9C243.6,92.7,243.7,94.8,245,95.8Z" transform="translate(456.04 -15.64)"/><path class="cls-1" d="M308.6,101c-0.7.2-.4-1.5,0-1.6,6.6-.7,7.2-0.8,7.2-13.6V73.6H283.2V85.7c0,12.3.3,13.2,7.3,13.7,0.3,0.1.6,1.6-.3,1.5a91.68,91.68,0,0,0-9.9-.5c-4.9,0-9.7.1-13.4,0.5-0.7.2-.4-1.5,0-1.6,8.7-.9,8.8-0.6,8.8-13.6V60c0-13.1-.1-12.7-8.8-13.8-0.4-.1-0.7-1.6,0-1.5,3.7,0.4,8.5.5,13.4,0.5a91.68,91.68,0,0,0,9.9-.5c0.9-.1.4,1.5,0.2,1.5-7.1.6-7.2,1.5-7.2,13.8V71.3h32.6V60c0-12.8-.6-13-7.2-13.8-0.4-.1-0.7-1.6,0-1.5a104.3,104.3,0,0,0,12,.5c3.6,0,8.7-.2,11.4-0.5,0.7-.2.5,1.5,0.1,1.5-8.9.8-8.7,1.3-8.7,13.8V85.8c0,12.5-.3,12.9,8.7,13.6,0.4,0,.6,1.8-0.1,1.6-2.8-.3-7.8-0.5-11.4-0.5A104.3,104.3,0,0,0,308.6,101Z" transform="translate(456.04 -15.64)"/><path class="cls-1" d="M397.5,100.5a127.77,127.77,0,0,0-13.2.5c-0.7.2-.3-1.6-0.1-1.6,4-.4,6-0.3,6-2.7,0-2.6-1.6-6.5-3.3-10.8L384.3,79H364.7l-3,6.9c-2.2,5.1-3.7,8.4-3.7,10.8,0,2,1.6,2.3,5.5,2.7,0.4,0,.6,1.8-0.1,1.6a63.66,63.66,0,0,0-8.3-.5,52.71,52.71,0,0,0-8.8.5c-0.7.2-.3-1.6-0.1-1.6,5.8-.4,8-4,12.3-13.7l18.7-41.5a0.93,0.93,0,0,1,1.6,0l15.9,41.5c4,10.4,5.6,13.2,12.7,13.8,0.3,0.1.6,1.6-.3,1.5A84.43,84.43,0,0,0,397.5,100.5ZM365.8,76.7h17.7l-8-22Z" transform="translate(456.04 -15.64)"/><path class="cls-1" d="M471,101c-0.7.2-.4-1.5,0-1.6,6.7-.7,7.3-0.9,7.1-13.6l-0.5-30.5-20,45.6a0.89,0.89,0,0,1-1.5-.1L435.6,57.7,435,85.8c-0.2,11.4-.2,12.9,7.8,13.6,0.3,0,.5,1.8-0.2,1.6a70.49,70.49,0,0,0-8.7-.5,69.19,69.19,0,0,0-10.8.5c-0.7.2-.4-1.5,0-1.6,7.7-.9,8-1.6,8.3-13.6L432,55.6c0.1-5.9-3-8.7-9.5-9.4-0.4-.1-0.7-1.7,0-1.5,4.3,0.6,8,.6,15.4.6L459,90.4l12.9-29.5c2.5-5.7,4.9-11.3,6.1-15.8a76,76,0,0,0,15.4-.4c0.9-.1.4,1.5,0.2,1.5-8.9.8-8.9,1.3-8.6,13.7l0.5,25.9c0.3,12.4,0,12.8,9,13.6,0.3,0,.6,1.8-0.1,1.6-2.8-.3-7.7-0.5-11.4-0.5A87.13,87.13,0,0,0,471,101Z" transform="translate(456.04 -15.64)"/><path class="cls-1" d="M573.3,73.1V85.7c0,12.3,0,13,8,13.6,0.3,0,.7,1.7-0.2,1.6-2.7-.3-6.9-0.5-10.7-0.5a115.74,115.74,0,0,0-12.6.5c-0.7.2-.3-1.6-0.1-1.6,7.7-.9,8.1-0.7,8.1-13.6V73.9L558.1,62c-8.4-12.9-10.5-15-17.8-15.8-0.4-.1-0.7-1.6,0-1.5a116.86,116.86,0,0,0,12.6.5c3.7,0,7.9-.2,10.6-0.5,0.9-.1.4,1.5,0.2,1.5-7.6.7-5.8,3.2,2.5,15.5l5.8,8.6,7.4-10.6c8.3-12,9.1-12.6,2.1-13.5-0.4-.1-0.7-1.6,0-1.5a79,79,0,0,0,10.6.5,56.71,56.71,0,0,0,7.8-.5c0.9-.1.5,1.5,0.1,1.5-7.4.6-9,2.5-17.2,13.8Z" transform="translate(456.04 -15.64)"/><path class="cls-1" d="M612.7,73.7c0-14.3,13.3-30.2,32.3-30.2,18.3,0,30.9,13.6,30.9,28.4,0,14.4-13.4,30.3-32.5,30.3C625.2,102.2,612.7,88.6,612.7,73.7Zm7.8-2.8c0,18.9,12.7,28.6,25,28.6,13,0,22.7-9.1,22.7-24.7,0-18.9-12.9-28.7-25.1-28.7C630.1,46.1,620.5,55.3,620.5,70.9Z" transform="translate(456.04 -15.64)"/><path class="cls-1" d="M748.3,80.7c0,11.7-7.9,21.5-23.2,21.5-13.2,0-23.8-8.3-23.8-22.1V60c0-12.9-.3-12.9-7.9-13.8-0.6,0-.9-1.5,0-1.5a118,118,0,0,0,12.6.5c3.7,0,8.1-.2,10.7-0.5,0.9-.1.4,1.5,0.2,1.5-8,.7-8,1.4-8,13.8V78.4c0,13.7,9.6,19.6,18.5,19.6,11.7,0,17.8-6.3,17.8-18.1V59.2c0-10.9-.8-12.1-8.4-13-0.4-.1-0.8-1.5.1-1.5a84.9,84.9,0,0,0,10.9.5,73.52,73.52,0,0,0,8.8-.5c0.9-.1.6,1.5,0.2,1.5-8,.7-8.3,2.6-8.3,13V80.7h-0.2Z" transform="translate(456.04 -15.64)"/><path class="cls-1" d="M830.6,85.8c0,4.3.2,12.1,0.6,15.7a1,1,0,0,1-1.5.1L787.2,57.2V85.8c0,11.4,0,13,8,13.6,0.3,0,.7,1.7-0.2,1.6a70,70,0,0,0-8.6-.5,80.66,80.66,0,0,0-10.7.5c-0.9.1-.3-1.6-0.1-1.6,7.7-.8,8.1-1.6,8.1-13.6V55.6c0-3.9-5.6-8.9-9.6-9.4-0.3,0-.8-1.5.1-1.5a101.84,101.84,0,0,0,12,.6l40.9,43V60c0-12-.3-12.9-8.1-13.8-0.3,0-.6-1.6.1-1.5a81.59,81.59,0,0,0,10.7.5,69.27,69.27,0,0,0,8.7-.5c0.9-.1.7,1.4,0.1,1.5-7.9.7-7.9,2.3-7.9,13.8V85.8h-0.1Z" transform="translate(456.04 -15.64)"/><path class="cls-1" d="M909.4,95.8c-7.6,4-13.8,6.4-22.1,6.4-19.8,0-31.4-13.2-31.4-28.1,0-14.4,13.6-30.5,32.6-30.5,8.3,0,17,3.9,18.7,5.2,0.6,0.4,1,6.4.6,11.7-0.1.6-1.5,0.3-1.5,0.1-0.5-6.8-8.1-14.4-20-14.4-12.9,0-22.6,9.2-22.6,24.8,0,18.9,12,28.6,24.3,28.6,9.2,0,11.4-2.9,11.9-4.3a27.16,27.16,0,0,0,.5-5.5c0-11.1-.5-11.8-9.6-12.5-0.4,0-.9-1.7.1-1.5a122,122,0,0,0,14.2.5c3.7,0,7.9-.2,10.7-0.5,0.7-.2.5,1.5,0.1,1.5-7.9.6-7.9,2-7.9,12.9C908,92.7,908.1,94.8,909.4,95.8Z" transform="translate(456.04 -15.64)"/><path class="cls-1" d="M1013.9,80.7c0,11.7-7.9,21.5-23.2,21.5-13.2,0-23.8-8.3-23.8-22.1V60c0-12.9-.3-12.9-7.9-13.8-0.6,0-.9-1.5,0-1.5a118,118,0,0,0,12.6.5c3.7,0,8.1-.2,10.7-0.5,0.9-.1.4,1.5,0.2,1.5-8,.7-8,1.4-8,13.8V78.4c0,13.7,9.6,19.6,18.5,19.6,11.7,0,17.8-6.3,17.8-18.1V59.2c0-10.9-.8-12.1-8.4-13-0.4-.1-0.8-1.5.1-1.5a84.9,84.9,0,0,0,10.9.5,73.52,73.52,0,0,0,8.8-.5c0.9-.1.6,1.5,0.2,1.5-8,.7-8.3,2.6-8.3,13V80.7h-0.2Z" transform="translate(456.04 -15.64)"/><path class="cls-1" d="M1096.3,85.8c0,4.3.2,12.1,0.6,15.7a1,1,0,0,1-1.5.1l-42.5-44.4V85.8c0,11.4,0,13,8,13.6,0.3,0,.7,1.7-0.2,1.6a70,70,0,0,0-8.6-.5,83.24,83.24,0,0,0-10.8.5c-0.9.1-.3-1.6-0.1-1.6,7.7-.8,8.1-1.6,8.1-13.6V55.6c0-3.9-5.6-8.9-9.6-9.4-0.3,0-.8-1.5.1-1.5a101.84,101.84,0,0,0,12,.6l40.9,43V60c0-12-.3-12.9-8.1-13.8-0.3,0-.6-1.6.1-1.5a81.59,81.59,0,0,0,10.7.5,69.27,69.27,0,0,0,8.7-.5c0.9-.1.7,1.4,0.1,1.5-7.9.7-7.9,2.3-7.9,13.8V85.8h0Z" transform="translate(456.04 -15.64)"/><path class="cls-1" d="M1124.6,101c-0.9.1-.3-1.6-0.1-1.6,7.7-.8,8.1-0.7,8.1-13.6V60c0-12.9-.4-12.9-8.1-13.8-0.3,0-.8-1.5.1-1.5a118.84,118.84,0,0,0,12.7.5c3.6,0,7.9-.2,10.6-0.5,0.9-.1.5,1.5,0.1,1.5-7.8.7-7.8,1.4-7.8,13.8V85.8c0,12.4,0,13,7.8,13.6,0.4,0,.8,1.7-0.1,1.6-2.7-.3-7-0.5-10.6-0.5A117.7,117.7,0,0,0,1124.6,101Z" transform="translate(456.04 -15.64)"/><path class="cls-1" d="M1198.7,101.6a0.85,0.85,0,0,1-1.5-.1L1179.7,60c-4.3-10.1-5.2-13.2-12.8-13.8-0.3,0-.6-1.6.1-1.5a94.57,94.57,0,0,0,9.9.5,127.77,127.77,0,0,0,13.2-.5c0.7-.2.5,1.4,0.1,1.5-4,.5-5.9.5-5.9,2.8,0,1.6,1.3,5.3,3.5,10.8l12.9,31.1,13.8-31.1c2.8-6.4,3.7-8.9,3.7-10.8s-1.7-2.5-5.7-2.8c-0.3,0-.8-1.5.1-1.5a63.66,63.66,0,0,0,8.3.5,50.11,50.11,0,0,0,8.6-.5c0.9-.1.6,1.4,0.2,1.5-6.1.7-7.2,3-12.1,13.8Z" transform="translate(456.04 -15.64)"/><path class="cls-1" d="M1281,100.9c-3.2,0-8.7-.4-15-0.4-8.7,0-17.5.1-23.8,0.5-0.8.1-.3-1.6-0.1-1.6,8.7-.9,8.9-0.6,8.9-13.6V60c0-13.1-.2-12.7-8.9-13.8-0.3,0-.8-1.6.1-1.5,6.3,0.4,14.7.6,23.5,0.6,6.4,0,12.2-.2,17.3-0.6a16.34,16.34,0,0,0-.6,5c0,0.9,0,2.6.1,3.3,0.1,0.4-1.5.3-1.5,0-0.7-3.8-2.5-4.9-13.8-4.9h-8.3a101.66,101.66,0,0,0-.4,11.5v11h8.9c9.5,0,8.8-.7,9.3-2.9,0.1-.3,1.5,0,1.6.2a26.5,26.5,0,0,0-.5,5.3c0,0.9,0,2.7.1,3.4,0.2,0.4-1.5.3-1.5,0.1-0.5-2.7-1-3.7-8.9-3.7h-8.9V85.6c0,11.2,1.4,12.2,5.3,12.2h4.6c13.2,0,13.9-1.1,15.2-6.8,0-.2,1.6-0.2,1.5.3a80.79,80.79,0,0,1-1.6,8C1283,100.7,1282.5,100.9,1281,100.9Z" transform="translate(456.04 -15.64)"/><path class="cls-1" d="M1331.7,75.3a57.35,57.35,0,0,1-6.8.5,17.25,17.25,0,0,1-3.4-.2V85.7c0,12.4,0,13,8,13.6,0.3,0,.7,1.7-0.2,1.6-2.7-.3-6.9-0.5-10.7-0.5a115.74,115.74,0,0,0-12.6.5c-0.7.2-.3-1.6-0.1-1.6,7.7-.8,8.1-0.7,8.1-13.6V59.9c0-9.7-.2-12.7-5.1-12.7-0.9,0-2.1.2-3.3,0.3-0.4.1-.9-1.3-0.2-1.5,3.5-1.1,12.1-1.5,21.6-1.5,12.6,0,22.9,3.9,22.9,13.4,0,4.8-3,11.9-12,15.6,4.6,12.4,18.1,27.3,27.8,27.3,0.3,0,.7,1.6-0.1,1.6C1345.5,102.4,1335.5,88.9,1331.7,75.3Zm-9.6-28.2q-0.6,2.7-.6,12V73.4c1.2,0.1,1.8,0,3.3,0,12.9,0,17.5-4.6,17.5-11.8,0-11.7-7.7-14.7-16.3-14.7C1324.6,46.9,1323.6,47,1322.1,47.1Z" transform="translate(456.04 -15.64)"/><path class="cls-1" d="M1375.7,96.4c-0.4-.3.2-5.3,0.5-11.4,0-.4,1.5-0.3,1.5-0.1,0.6,8.8,5.4,14.5,14.4,14.5,5.8,0,11.4-3.2,11.4-10.1,0-14.3-25.9-14.4-25.9-30,0-7.9,7-15.9,16.9-15.9a21.4,21.4,0,0,1,11.3,2.8c0.7,0.3,1.3,3.6,1.3,9.4,0,0.4-1.7.3-1.7,0.1-1-6.4-5.2-9.6-11.5-9.6-5.4,0-10.3,3.4-10.3,8.8,0,13.7,25.4,13.4,25.4,29.8a17.29,17.29,0,0,1-17.6,17.5A23.63,23.63,0,0,1,1375.7,96.4Z" transform="translate(456.04 -15.64)"/><path class="cls-1" d="M1430.7,101c-0.9.1-.3-1.6-0.1-1.6,7.7-.8,8.1-0.7,8.1-13.6V60c0-12.9-.4-12.9-8.1-13.8-0.3,0-.8-1.5.1-1.5a118.84,118.84,0,0,0,12.7.5c3.6,0,7.9-.2,10.6-0.5,0.9-.1.5,1.5,0.1,1.5-7.8.7-7.8,1.4-7.8,13.8V85.8c0,12.4,0,13,7.8,13.6,0.4,0,.8,1.7-0.1,1.6-2.7-.3-7-0.5-10.6-0.5A118.84,118.84,0,0,0,1430.7,101Z" transform="translate(456.04 -15.64)"/><path class="cls-1" d="M1530.1,54.3c0.1,0.3-1.5.3-1.5,0.1-0.8-3.8-2.1-5.8-13.4-5.8h-9V85.8c0,12.4,0,13,8,13.6,0.4,0,.7,1.7-0.2,1.6-2.7-.3-7-0.5-10.6-0.5a117.7,117.7,0,0,0-12.7.5c-0.7.2-.4-1.5,0-1.6,7.6-.8,7.9-0.7,7.9-13.6V48.6h-9.5c-10.9,0-12.7,1.9-13.8,5.8-0.3.1-1.5,0.1-1.5-.2a48.65,48.65,0,0,0,.4-7.1,28.72,28.72,0,0,0-.4-4.4c-0.2-.3,1.2-0.3,1.5-0.2,0.7,2.8,1.2,3,13.7,3h26.1c12.6,0,13.3-.1,14-3,0-.2,1.6-0.3,1.5.2a33.94,33.94,0,0,0-.7,7.1A31,31,0,0,0,1530.1,54.3Z" transform="translate(456.04 -15.64)"/><path class="cls-1" d="M1577.9,73.1V85.7c0,12.3,0,13,8,13.6,0.3,0,.7,1.7-0.2,1.6-2.7-.3-6.9-0.5-10.7-0.5a115.74,115.74,0,0,0-12.6.5c-0.7.2-.3-1.6-0.1-1.6,7.7-.9,8.1-0.7,8.1-13.6V73.9L1562.7,62c-8.4-12.9-10.5-15-17.8-15.8-0.4-.1-0.7-1.6,0-1.5a116.86,116.86,0,0,0,12.6.5c3.7,0,7.9-.2,10.6-0.5,0.9-.1.4,1.5,0.2,1.5-7.6.7-5.8,3.2,2.5,15.5l5.8,8.6,7.4-10.6c8.3-12,9.1-12.6,2.1-13.5-0.4-.1-0.7-1.6,0-1.5a79,79,0,0,0,10.6.5,56.71,56.71,0,0,0,7.8-.5c0.9-.1.5,1.5,0.1,1.5-7.4.6-9,2.5-17.2,13.8Z" transform="translate(456.04 -15.64)"/><path class="cls-1" d="M-354.88,67.78c1.56,0.52,3.09,1,4.57,1.54,9,3.5,14.11,10.15,15.48,19.68a36.27,36.27,0,0,1-1.29,17c-2.62,7.7-8,12.86-15.23,16.25a54.41,54.41,0,0,1-16.07,4.36,110.84,110.84,0,0,1-14.62.74l-72.74,0a1.68,1.68,0,0,1-1.1-.27,0.78,0.78,0,0,1,.53-1.22c1.62-.33,3.25-0.63,4.86-1a9.48,9.48,0,0,0,1.55-.56,4.44,4.44,0,0,0,3-4.6q-0.06-48,0-96c0-3.21-.71-4.31-3.79-5.3a44.62,44.62,0,0,0-5.27-1.14c-0.58-.11-1-0.24-0.92-1s0.53-.63,1-0.63c25,0,50,0,74.93,0a88.14,88.14,0,0,1,21.86,2.4,34.63,34.63,0,0,1,9.48,3.85,20.26,20.26,0,0,1,9.46,12.75,34.62,34.62,0,0,1,0,17.42c-2,7.81-7.22,12.65-14.72,15.19l-0.73.26A0.72,0.72,0,0,0-354.88,67.78Zm-55.51,38c1.24,0,2.42,0,3.6,0,6-.07,12,0,17.95-0.28a20.24,20.24,0,0,0,9.45-2.72,10.73,10.73,0,0,0,5.51-7.56,21.71,21.71,0,0,0,.24-4.94,11,11,0,0,0-7.82-10.35A26.85,26.85,0,0,0-390,78.52c-5.72-.08-11.45-0.06-17.17-0.08h-3.2v27.31Zm0-44.58c0.17,0,.28,0,0.39,0l17.26-.12a27.15,27.15,0,0,0,9.59-1.46c3.44-1.3,6-3.51,7.1-7.13a15.08,15.08,0,0,0,.24-7.16,8.45,8.45,0,0,0-6-7.11A24.71,24.71,0,0,0-388.26,37c-6.24-.21-12.49-0.16-18.74-0.23-1,0-2-.1-3-0.14a3.14,3.14,0,0,0-.48,0V61.17Z" transform="translate(456.04 -15.64)"/><path class="cls-1" d="M-181.84,53.81q0-14.92,0-29.83a14.87,14.87,0,0,0-.17-2.26,5,5,0,0,0-4.81-4.47c-0.38,0-.75-0.08-1.13-0.09-0.61,0-.68-0.43-0.68-0.9a0.58,0.58,0,0,1,.76-0.6c0.14,0,.29,0,0.44,0q25.52,0,51,0a1.49,1.49,0,0,1,1.06.32c0.4,0.53,0,1.09-.66,1.23-1.42.28-2.84,0.56-4.26,0.87a7.83,7.83,0,0,0-1.15.41c-2.38.92-3.43,2.54-3.42,5.21,0.08,19,0,38,0,57.05a26.52,26.52,0,0,0,2.4,11.68,18.5,18.5,0,0,0,12.47,10.31,26.23,26.23,0,0,0,15.7-.48c7-2.48,11-7.71,12.58-14.84a31.54,31.54,0,0,0,.7-6.65c0.05-19.16,0-38.33.05-57.49a4.48,4.48,0,0,0-2.67-4.46,17.46,17.46,0,0,0-5.93-1.59c-0.56-.07-1.06-0.16-1-0.91a0.61,0.61,0,0,1,.71-0.67c0.2,0,.41,0,0.61,0q27,0,54.09,0a1.42,1.42,0,0,1,1.07.4c0.34,0.58,0,1-.68,1.15-1.54.29-3.08,0.58-4.61,0.9a7.07,7.07,0,0,0-1.24.41c-2.72,1.12-3.36,2.08-3.36,5,0,19.13,0,38.27,0,57.4a51.81,51.81,0,0,1-4.75,22.41c-4.48,9.43-11.77,15.94-21.21,20.14a69.08,69.08,0,0,1-20.59,5.26,112.4,112.4,0,0,1-19.07.49c-9.49-.55-18.75-2.15-27.42-6.26-13.42-6.37-21.19-17-23.87-31.55a65.83,65.83,0,0,1-1-12q0-12.82,0-25.65h0Z" transform="translate(456.04 -15.64)"/><path class="cls-1" d="M-334.57,15.66h54c0.38,0,1-.23,1,0.46s-0.05,1-.82,1a11,11,0,0,0-1.65.09c-2.53.26-3.58,1.76-2.86,4.24a13.92,13.92,0,0,0,1.41,3.36c3.47,5.67,7,11.34,10.55,16.93,2.66,4.13,5.51,8.13,8.23,12.22,0.77,1.15,1.37,2.41,1.92,3.39,2.62-5.33,6.52-10.18,9.8-15.42,3.64-5.81,7.3-11.6,10.88-17.45a13.2,13.2,0,0,0,1.58-3.92c0.4-1.77-.43-2.82-2.22-3.2a12.06,12.06,0,0,0-2.34-.21,0.74,0.74,0,0,1-.89-0.87c0-.66.43-0.64,0.89-0.64h50.85c0.63,0,1.17.05,1,.87a0.9,0.9,0,0,1-.59.58c-3.63.09-6.07,2.21-8.05,4.88-2.59,3.5-5,7.13-7.45,10.74Q-225.92,57.34-242.49,82a3.25,3.25,0,0,0-.59,1.93c0,11.92.06,23.84,0,35.76,0,2.47,1,4.05,3.22,4.77a59.58,59.58,0,0,0,6.09,1.43,0.7,0.7,0,0,1,.68.94,1.18,1.18,0,0,1-.57.57,1.37,1.37,0,0,1-.6,0h-57.66a1.85,1.85,0,0,1-1-.14,1,1,0,0,1-.17-0.87,0.87,0.87,0,0,1,.59-0.47c1.48-.31,3-0.47,4.43-0.9a17.87,17.87,0,0,0,3.54-1.61,2.81,2.81,0,0,0,1.34-2.51c0-.44,0-0.87,0-1.31q0-18.06,0-36.11a3,3,0,0,0-.48-1.6Q-302.86,53.42-322.08,25a45.56,45.56,0,0,0-3.41-4.4,10.24,10.24,0,0,0-7.33-3.35c-0.29,0-.58,0-0.87-0.05C-334.81,17.1-335,16.84-334.57,15.66Z" transform="translate(456.04 -15.64)"/></svg>