<svg id="Layer_1" data-name="Layer 1" xmlns="http://www.w3.org/2000/svg" viewBox="0 0 629.9 299.11"><defs><style>.cls-1{fill:#fff;}</style></defs><title>BYU_Combined_Mark</title><path class="cls-1" d="M101.4,102.71l3.4,1.17c9.94,3.49,15.29,10.63,16.46,21a37.82,37.82,0,0,1-.58,12.89,26.4,26.4,0,0,1-12.44,17.19,46.64,46.64,0,0,1-16.65,5.79,93.68,93.68,0,0,1-16,1.12H4.07c-0.93,0-1.86-.06-2.7-0.08-0.4-1.33.3-1.48,1.06-1.63,1.41-.28,2.84-0.49,4.21-0.9,3.48-1,4.22-2.07,4.23-5.66q0-47.27,0-94.53c0-3-.61-4-3.45-5a45,45,0,0,0-5.11-1.23,1,1,0,0,1-1-1.52c0.8-.05,1.71-0.16,2.61-0.16H53.13c8.32,0,16.64-.05,25,0.06A77.32,77.32,0,0,1,99.64,54a38.23,38.23,0,0,1,5.37,2,20.73,20.73,0,0,1,12.13,15.66,35.67,35.67,0,0,1-.27,15,20.5,20.5,0,0,1-12.32,14.67C103.68,101.76,102.8,102.12,101.4,102.71Zm-55,37.58c6.44,0,12.6.1,18.74,0a26.78,26.78,0,0,0,9.61-1.86c4.72-1.93,7.57-5.33,7.83-10.51,0.38-7.76-2.85-12-9.64-13.62a21.47,21.47,0,0,0-4.5-.64c-6.71-.16-13.43-0.23-20.15-0.32-0.62,0-1.23.06-1.89,0.1v26.89Zm0-68.28V96.33c7.59-.2,15-0.27,22.42-0.69A17.34,17.34,0,0,0,75,93.71a9.38,9.38,0,0,0,5.22-6.53,15.47,15.47,0,0,0-.1-7.6,7.91,7.91,0,0,0-5.21-5.83,20.54,20.54,0,0,0-5.81-1.3C61.62,72.18,54.11,72.14,46.48,72Z" transform="translate(114.05 -51.08)"/><path class="cls-1" d="M265.77,51.26H319a4.88,4.88,0,0,1-1.11,1.4,17.12,17.12,0,0,1-2.1.46,34.34,34.34,0,0,0-3.43,1,4.41,4.41,0,0,0-3,4.62c0.06,19.28,0,38.56.09,57.84a26.47,26.47,0,0,0,1.08,7.32c2.43,8.2,8.09,12.9,16.51,14a30.84,30.84,0,0,0,9.3-.25c8.55-1.56,14.2-7.43,15.75-16a35.25,35.25,0,0,0,.54-6.2q0.06-28.08,0-56.16c0-3.38-.63-4.38-3.81-5.54-1.41-.51-3-0.66-4.41-1.09a3.42,3.42,0,0,1-1-1,4.37,4.37,0,0,1,1.13-.6,8.83,8.83,0,0,1,1.67,0h50.16c0.93,0,1.86.06,2.78,0.09l0.23,0.5a3.2,3.2,0,0,1-.93,1c-0.74.27-1.57,0.28-2.34,0.5a39.3,39.3,0,0,0-4.31,1.39,3.46,3.46,0,0,0-2.27,3.6c0,0.8,0,1.6,0,2.4q0,26.52,0,53a63.44,63.44,0,0,1-1.91,16.63c-3.6,13.33-11.87,22.58-24.5,28A70.16,70.16,0,0,1,341,163.45a105.79,105.79,0,0,1-29.39-1.34,60.36,60.36,0,0,1-13.91-4.4c-13.86-6.44-21.83-17.36-24.25-32.32a77.48,77.48,0,0,1-.9-11.94c-0.09-17.44,0-34.88,0-52.32,0-1.12,0-2.24-.08-3.36a5.06,5.06,0,0,0-4.61-5C266.45,52.53,266.45,52.53,265.77,51.26Z" transform="translate(114.05 -51.08)"/><path class="cls-1" d="M208.67,51.27h53.1c-0.64.7-.92,1.31-1.25,1.34-4.34.34-6.79,3.33-9,6.51-4.46,6.44-8.8,13-13.18,19.47q-12.47,18.5-24.95,37a7.79,7.79,0,0,0-1.4,4.67c0.05,11.12,0,22.23,0,33.35,0,3.47.74,4.53,4,5.56,1.44,0.45,3,.65,4.44,1,0.83,0.18.82,0.18,1.15,1.32-1.78.5-56.63,0.57-59.41,0a3.07,3.07,0,0,1,.84-1.19c1-.31,2-0.39,3-0.61a17.83,17.83,0,0,0,2.54-.68c2.76-1,3.45-2.06,3.46-5,0-11.6,0-23.19,0-34.79a5.61,5.61,0,0,0-1.07-3.32Q152.2,87.92,133.35,60c-0.4-.6-0.83-1.17-1.24-1.76a11.75,11.75,0,0,0-9.35-5.5c-1.09-.06-1.09-0.13-1.44-1.26,2-.53,52.61-0.5,54.62.08a2.22,2.22,0,0,1-.54.94,4.38,4.38,0,0,1-1.4.2c-3.21.29-4.31,1.83-3.14,4.85A34.78,34.78,0,0,0,174,63.72c4.75,7.4,9.62,14.72,14.44,22.07l4,6.06c4.14-6.29,8.35-12.58,12.44-19,2.81-4.37,5.48-8.83,8.15-13.28a11.07,11.07,0,0,0,1.35-3.3c0.44-2.08-.42-3.18-2.52-3.53a13.6,13.6,0,0,1-1.9-.18A5.28,5.28,0,0,1,208.67,51.27Z" transform="translate(114.05 -51.08)"/><path class="cls-1" d="M195.21,200.51H4.67A15.24,15.24,0,0,1,2,200.4a1.25,1.25,0,0,1-.81-0.92,1.3,1.3,0,0,1,.87-0.88,12.88,12.88,0,0,1,2.39-.09H385.81a11.83,11.83,0,0,1,2.39.07,3.28,3.28,0,0,1,1.11.95,3.4,3.4,0,0,1-1.17.91,15.33,15.33,0,0,1-2.63.06H195.21v0Z" transform="translate(114.05 -51.08)"/><path class="cls-1" d="M223.92,274.44H210.43l-0.07-.33c0.55-.15,1.1-0.3,1.66-0.44,1.81-.43,2.13-0.71,2.16-2.58a44.65,44.65,0,0,0-.26-4.78q-0.81-8.83-1.68-17.66a4.47,4.47,0,0,0-.72-2.11l-13.58,28.78c-2.06-3.41-3.48-6.56-5.08-9.62s-3.27-6.4-4.9-9.61l-5.06-9.89c-0.16,1.14-.27,1.71-0.31,2.29-0.42,5.82-.85,11.63-1.24,17.45-0.09,1.27-.07,2.56,0,3.84,0.08,3.08.33,3.36,3.27,4l1.33,0.29c-1.9.68-10.11,0.76-12.84,0.1,1.25-.28,2.05-0.52,2.87-0.63a2.6,2.6,0,0,0,2.48-2.48c0.45-3.72,1-7.44,1.3-11.18,0.56-7.65,1-15.31,1.43-23a2.53,2.53,0,0,1,.5-1.35c3.33,5.27,5.89,10.88,8.7,16.35s5.56,11,8.54,16.87c5.43-11.3,10.43-22.36,15.66-33.3l0.69,0.11c0.08,0.73.15,1.46,0.23,2.2q1.63,16,3.27,31.94c0.06,0.55.22,1.09,0.32,1.64a2.37,2.37,0,0,0,2.24,2.12c0.9,0.13,1.79.37,2.68,0.56Z" transform="translate(114.05 -51.08)"/><path class="cls-1" d="M100.74,253.52c0-2.49,0-4.87,0-7.25,0-2.16-.07-4.32-0.25-6.47-0.22-2.58-.6-2.88-3.21-3.31-0.53-.09-1.06-0.24-1.72-0.39,1.43-.76,11.67-0.9,14.31.06l-2.17.4c-2,.36-2.43.79-2.64,2.8a54.41,54.41,0,0,0-.36,5.74c0,8,.14,16,0.23,24,0,0.4,0,.8.07,1.2,0.24,2.52.49,2.8,2.92,3.32l1.75,0.38a0.94,0.94,0,0,1,.08.35,0.25,0.25,0,0,1-.19.13q-6.22.08-12.45,0.14a2,2,0,0,1-1.47-.59c0.88-.18,1.74-0.41,2.63-0.54a2.15,2.15,0,0,0,2-2,19.25,19.25,0,0,0,.27-2.13q0.14-5.87.21-11.75a15.17,15.17,0,0,0-.14-1.6c-1.85-.53-20-0.65-22.86-0.14a16.63,16.63,0,0,0-.16,1.81c0.06,4.08,0,8.16.26,12.23,0.19,3.2.38,3.21,3.46,3.87L83,274.11c-2.39.66-12.62,0.64-14.81,0,1.17-.25,2-0.48,2.82-0.59a2.31,2.31,0,0,0,2.23-2.37c0.14-1.75.38-3.51,0.39-5.26q0.07-10.79,0-21.59a47.74,47.74,0,0,0-.37-5c-0.22-2-.66-2.36-2.7-2.72l-2.33-.42c1.71-.76,9.76-1,14.41-0.49-0.09.93-.86,0.74-1.4,0.83-2.8.48-3.1,0.59-3.29,3.46-0.29,4.46-.3,8.93-0.42,13.34C79.39,253.85,96.41,254,100.74,253.52Z" transform="translate(114.05 -51.08)"/><path class="cls-1" d="M425.56,243.88c0,0.95,0,1.9,0,2.84q0.25,10.54.51,21.09c0,0.4,0,.8.09,1.2,0.37,3.41.72,3.78,4.13,4.5,0.45,0.09.88,0.27,1.7,0.53-1.78,1-3.35.46-4.83,0.55s-3,0-4.56,0h-5.09c0.94-1.27,1.88-1.1,2.67-1.24,1.6-.29,2.62-1.08,2.72-2.81,0.06-1,.23-2.07.22-3.1q-0.13-15-.31-30c0-.68,0-1.36,0-2.08,1.5-.21,1.93.83,2.53,1.47q8.39,8.9,16.71,17.86,4.91,5.26,9.82,10.51c0.47,0.5,1,1,1.87,1.8,0-1,0-1.52,0-2-0.12-6.55-.22-13.11-0.38-19.66a49.81,49.81,0,0,0-.45-5.25c-0.32-2.42-.87-2.95-3.28-3.41a14.64,14.64,0,0,1-2.36-.55c1.72-.83,11.64-0.88,14.23-0.09-1.18.34-1.94,0.61-2.72,0.76a2.73,2.73,0,0,0-2.46,2.78c-0.09,1.67-.36,3.35-0.35,5,0,9.19.16,18.38,0.25,27.57,0,0.84,0,1.69,0,3-2.5-1.51-3.82-3.51-5.46-5.16s-3.29-3.49-4.93-5.24l-5.08-5.42-4.92-5.25-4.92-5.25L426,243.7Z" transform="translate(114.05 -51.08)"/><path class="cls-1" d="M-29.45,273.7a4.88,4.88,0,0,1-1.23.67c-5.21.64-10-.27-13.33-4.69-2.37-3.1-4.48-6.4-6.7-9.63-0.5-.72-0.93-1.49-1.44-2.31h-7.48a17.42,17.42,0,0,0-.18,1.93c0.07,3.51.07,7,.29,10.54,0.17,2.66.51,2.87,3.16,3.29,0.9,0.14,1.8.3,2.69,0.46l-0.07.47H-68.79l-0.07-.38,2.42-.56c1.74-.41,2.11-0.74,2.32-2.54a44.59,44.59,0,0,0,.37-5.26c0-8.23-.13-16.45-0.21-24.68a14,14,0,0,0-.12-1.67c-0.26-2-.69-2.44-2.65-2.79l-2.16-.4,0.07-.52a11.58,11.58,0,0,1,1.28-.14c4.55,0,9.11-.14,13.66,0a19.45,19.45,0,0,1,6.28,1.26c5.52,2.19,7.52,7.64,5,13a13.8,13.8,0,0,1-4.06,5l-2,1.56c3.48,5.09,6.83,10.14,11.35,14.26,1.87,1.71,4,3,6.65,2.8A5.23,5.23,0,0,1-29.45,273.7Zm-29.87-36.39a132.69,132.69,0,0,0-.34,17.44,1.38,1.38,0,0,0,1.5,1.26,39.4,39.4,0,0,0,4.07.22,7.2,7.2,0,0,0,7.28-5.15,12.39,12.39,0,0,0-.9-10.21,6.8,6.8,0,0,0-5.56-3.72A54.09,54.09,0,0,0-59.32,237.31Z" transform="translate(114.05 -51.08)"/><path class="cls-1" d="M326.26,275a19.29,19.29,0,0,1-19.75-19.46A20.48,20.48,0,0,1,327,235.09a19.45,19.45,0,0,1,19.78,19.52A20.38,20.38,0,0,1,326.26,275Zm15.95-18.35c-0.14-7-2.45-13-8.4-17.15a14.07,14.07,0,0,0-21.11,6.08,20.45,20.45,0,0,0-.68,14.76,19.56,19.56,0,0,0,7,10.07c6.08,4.56,17.49,4,21.63-6A20.62,20.62,0,0,0,342.21,256.63Z" transform="translate(114.05 -51.08)"/><path class="cls-1" d="M-94.7,252.69c0.94,0.38,1.74.68,2.52,1,3.86,1.67,6.55,4.26,6.75,8.75a10.08,10.08,0,0,1-6.08,10.24,17.46,17.46,0,0,1-6.41,1.72c-5.1.27-10.22,0.13-15.33,0.14A0.94,0.94,0,0,1-114,274c1-.19,2-0.4,2.95-0.56a2.1,2.1,0,0,0,2-2c0.11-1.11.34-2.22,0.35-3.33q0-12.94,0-25.89a20.09,20.09,0,0,0-.32-3.09c-0.29-1.79-.65-2.12-2.39-2.48-0.85-.17-1.69-0.37-2.53-0.56a1.73,1.73,0,0,1,0-.4,12.09,12.09,0,0,1,1.28-.13c4.23,0,8.48-.15,12.7.05a16.56,16.56,0,0,1,6,1.35c5.85,2.69,6.79,9.11,2.12,13.54C-92.75,251.2-93.67,251.85-94.7,252.69Zm-9.83,1.76c-0.07.74-.17,1.36-0.17,2,0,3.67,0,7.35,0,11,0.12,5.29,1.22,6.22,6.51,5.75a12,12,0,0,0,2.12-.35,7.78,7.78,0,0,0,5.42-4.67,10,10,0,0,0-4.53-12.55C-98.09,254.06-101.21,254-104.53,254.45Zm-0.13-2.11c4.77,1.22,8.31.34,10-2.34a9.84,9.84,0,0,0-.55-10.41c-2-2.61-5.43-3.4-9.4-2C-104.79,242.46-104.77,247.43-104.67,252.33Z" transform="translate(114.05 -51.08)"/><path class="cls-1" d="M47,237.16l0.4,8.48-0.44.15a1.71,1.71,0,0,1-.55-0.55C45,240,40.88,237.93,36.18,237c-8.43-1.61-15.58,3.51-17.38,12.26a20,20,0,0,0,3.92,17.18c5.31,6.68,13.74,7.72,20.18,5.6a10.52,10.52,0,0,0,1.12-.56c-0.19-4.15-.38-8.37-0.57-12.58-0.06-1.24-1-1.54-1.95-1.72l-2.9-.55,0.08-.46H52.12l0.09,0.35c-0.64.18-1.26,0.4-1.91,0.54-2,.43-2.24.65-2.33,2.69-0.12,2.63-.12,5.28-0.13,7.91,0,4.39,0,4.43-4.21,5.84-6.05,2-12.09,2.18-18-.5a19.41,19.41,0,0,1-11.55-20.83c1.55-9.1,8-15.57,17.18-16.84a30.21,30.21,0,0,1,10.93.79C43.64,236.47,45.13,236.77,47,237.16Z" transform="translate(114.05 -51.08)"/><path class="cls-1" d="M507.66,271.54c-0.18-4.18-.36-8.39-0.56-12.61-0.06-1.23-1-1.54-2-1.73l-2.9-.55,0.08-.46h13.44l0.09,0.34c-0.63.18-1.26,0.4-1.9,0.54-2,.44-2.25.62-2.33,2.68-0.11,3.19-.21,6.4-0.1,9.59a3.08,3.08,0,0,1-2.23,3.41c-7.17,2.91-14.3,3.31-21.31-.36a19.2,19.2,0,0,1-10.13-21.12,19.71,19.71,0,0,1,16.77-15.89,30.13,30.13,0,0,1,11.17.76c1.47,0.34,3,.63,4.49.95,0.74,2.29.87,7.06,0.19,8.69a2.36,2.36,0,0,1-.43-0.54,13.25,13.25,0,0,0-13.32-8.47c-7.18.44-12.1,4.42-14,11.37a20.22,20.22,0,0,0,1.89,15.76c4.7,8.34,13.74,10.66,21.7,8.26A11.83,11.83,0,0,0,507.66,271.54Z" transform="translate(114.05 -51.08)"/><path class="cls-1" d="M363,235.64h14.32l0.09,0.32a8.1,8.1,0,0,1-1.39.48c-3.35.53-3.55,0.66-3.69,4.09Q372,247.25,372,254a54.06,54.06,0,0,0,.3,8.37,12.2,12.2,0,0,0,17.8,8.89,10.15,10.15,0,0,0,5.65-9.16c0.18-7.11.12-14.24-.11-21.35-0.11-3.33-.12-4-4-4.32a4.19,4.19,0,0,1-.93-0.34c1.35-.7,8.63-0.89,12.48-0.37-0.31,1-1.16.69-1.79,0.81-2.18.41-2.49,0.65-2.79,2.89a37.56,37.56,0,0,0-.31,4.54c-0.05,5.36,0,10.72-.07,16.08,0,6.14-2.44,11-8.18,13.51-6.08,2.65-12.09,2.11-17.37-2.16-3.32-2.68-4.61-6.45-4.64-10.64-0.05-5.6,0-11.2-.09-16.8,0-1.67-.27-3.34-0.38-5a2.35,2.35,0,0,0-2.28-2.33c-0.8-.13-1.59-0.29-2.39-0.44Z" transform="translate(114.05 -51.08)"/><path class="cls-1" d="M161.17,274.45h-12l-0.05-.35c0.49-.13,1-0.25,1.47-0.39s0.89-.3,1.63-0.55c-0.86-4.81-3.1-9-4.7-13.62H135.24c-0.68,1.85-1.42,3.76-2.07,5.7s-1.34,4.1-1.87,6.18c-0.4,1.56-.2,1.75,1.36,2.16,0.38,0.1.79,0.14,1.18,0.22s0.54,0.13,1.13.28c-2.13.67-9.32,0.69-11.21,0.14a0.79,0.79,0,0,1,.27-0.32c2.92-.12,4.35-2,5.29-4.46,2.89-7.7,5.82-15.38,8.69-23.08,1.14-3.07,2.19-6.17,3.29-9.25,0.2-.57.47-1.11,1-2.22,0.53,1.31.86,2.08,1.16,2.86L155,267.69c0.2,0.52.46,1,.66,1.54,1,2.58,2.25,4.84,5.72,4.58Zm-14.43-16.92-5.33-14.48c-1.82,3.54-5,12.82-5,14.48h10.3Z" transform="translate(114.05 -51.08)"/><path class="cls-1" d="M282.42,274.45h-15l-0.07-.48c1-.18,1.93-0.4,2.91-0.52a2.12,2.12,0,0,0,2.16-2.13c0.18-4.39.36-8.78,0.44-13.17a4.07,4.07,0,0,0-.78-2c-3.56-5.79-7.16-11.55-10.7-17.35-0.94-1.54-2.09-2.58-4-2.58a1.47,1.47,0,0,1-1.2-.67h12.38l0.06,0.33-3.35.79c3,6.53,6.73,12.44,10.56,18.79,3.6-6.36,7.62-12,10.69-18.62l-4-.86c1.43-.73,8.68-0.84,11.44-0.13a9.11,9.11,0,0,1-1.86.45,4.24,4.24,0,0,0-3.83,2.42c-3.57,5.88-7.19,11.72-10.74,17.61a4.45,4.45,0,0,0-.63,2.24c0.06,3.91.15,7.83,0.38,11.74,0.15,2.6.39,2.73,3,3.2,0.75,0.14,1.5.31,2.26,0.46Z" transform="translate(114.05 -51.08)"/><path class="cls-1" d="M58.64,329.9a1.09,1.09,0,0,0-.23.41c0.05,4.72,0,9.44.21,14.15,0.16,3.67.31,3.67,3.5,5.17-3,.29-6,0.2-9.11.22a1.68,1.68,0,0,1,.28-0.59c2.94-1,3-1,3-4.22,0-6.56-.12-13.11-0.19-19.67,0-.69,0-1.37,0-2.12,1.33-.17,1.76.74,2.32,1.32q8.31,8.66,16.56,17.37a15.71,15.71,0,0,1,1.36,1.93l0.63-.39c0-.6.11-1.19,0.1-1.79-0.07-4.4,0-8.8-.26-13.19-0.2-3.68-.34-3.67-3.64-5.14,1.51,0,3-.07,4.54-0.09s3,0,4.59,0a1.55,1.55,0,0,1-.22.58c-2.8,1-2.92,1-2.93,4.1,0,6.72,0,13.44.06,20.15,0,0.59-.06,1.18-0.1,2-2.08-1-3.1-2.65-4.43-3.94s-2.67-2.76-4-4.15l-3.81-4c-1.33-1.39-2.63-2.8-4-4.15S60.11,331.27,58.64,329.9Z" transform="translate(114.05 -51.08)"/><path class="cls-1" d="M229.3,337.9c2,2.54,3.91,5.11,6,7.52,1.68,2,3.61,3.67,6.72,3.37a2.29,2.29,0,0,1-.45.77c-3.39.6-6.62,0.26-9-2.43a41.48,41.48,0,0,1-4.71-6.32c-1-1.73-2.2-2.6-4.2-2.25-0.54.09-1.09,0.09-1.9,0.15a47.85,47.85,0,0,0,.3,8.61,1.6,1.6,0,0,0,1.36,1.45,4.37,4.37,0,0,1,2.21,1c-1.68,0-3.35.06-5,.07s-3.5,0-5.49,0a2.2,2.2,0,0,1,.56-0.68c2.08-.25,2.75-1.49,2.73-3.46,0-6,.07-12,0-18,0-3-.2-3-3.41-4.13a8.63,8.63,0,0,1,1.47-.33c3,0,5.92-.1,8.87,0a14.23,14.23,0,0,1,4.43.82c4.21,1.61,5.63,5.73,3.26,9.57A35.09,35.09,0,0,1,229.3,337.9Zm-7.73-6.38h0.12c0,1.2,0,2.39,0,3.59a1.6,1.6,0,0,0,1,1.68,5.37,5.37,0,0,0,7.52-4,10.26,10.26,0,0,0,0-3.08c-0.5-3.82-2.94-5.56-6.72-4.94a1.53,1.53,0,0,0-1.54,1.49C221.89,328,221.72,329.78,221.57,331.52Z" transform="translate(114.05 -51.08)"/><path class="cls-1" d="M-4.19,236.17l-2.42.39c-2.09.33-2.41,0.61-2.72,2.67a24.88,24.88,0,0,0-.33,3.57q0,12.23,0,24.45c0,1.35.25,2.7,0.37,4.05a2.16,2.16,0,0,0,2.15,2.14c1,0.12,1.95.34,2.92,0.52l-0.07.47H-19.53c1-.92,2.07-0.74,3-0.94,1.94-.45,2.24-0.68,2.46-2.65a48.57,48.57,0,0,0,.36-5q0.06-10.79,0-21.58a47.89,47.89,0,0,0-.39-5.25c-0.19-1.62-.62-2-2.22-2.36a12.7,12.7,0,0,1-3-.76,143.36,143.36,0,0,1,15-.38Z" transform="translate(114.05 -51.08)"/><path class="cls-1" d="M7.12,323.4h10a1.43,1.43,0,0,1-.32.48c-2.88.89-2.94,0.88-3,3.89-0.13,3.75-.16,7.51-0.18,11.26a13,13,0,0,0,.32,2.85c0.89,4,4.36,6.39,8.8,6,3.79-.3,6.35-2.83,6.48-7,0.16-4.78,0-9.58-.06-14.37A2.18,2.18,0,0,0,27,324.13a8.74,8.74,0,0,1-1.22-.37c1.72-.61,5.82-0.71,8.64-0.27a0.79,0.79,0,0,1-.18.37c-2.6.94-2.66,0.93-2.75,3.68-0.12,4-.22,8-0.19,12s-1.42,7.4-5.14,9.3a11.25,11.25,0,0,1-11.64-.54,8.7,8.7,0,0,1-4.16-7.66c-0.05-3.43,0-6.87,0-10.31q0-1.08,0-2.16C10.15,324.88,10.13,324.86,7.12,323.4Z" transform="translate(114.05 -51.08)"/><path class="cls-1" d="M193.92,323.45l-0.63,5.5c-1.41-3.63-1.43-3.8-5.33-4.05-1.27-.08-2.54,0-3.75,0-0.59,1.88-.72,7-0.26,10.38,2.68-.27,5.62,1.11,8.09-1.83,0.39,2.08,0,3.89-.17,5.88-1.58-2.4-1.59-2.42-4.49-2.46-1.11,0-2.21,0-3.66,0,0,3.26-.19,6.33.41,9.41a2,2,0,0,0,1.92,1.81,34.87,34.87,0,0,0,4.76-.14,3.4,3.4,0,0,0,2.87-2.26c0.18-.42.4-0.82,0.66-1.36,0.41,1.45.34,3.88-.3,4.6a2.8,2.8,0,0,1-1.8.91c-5,.07-9.91,0-15-0.3a3.35,3.35,0,0,1,1-.56c1.65-.23,2-1.32,2-2.75,0-6.08,0-12.15.08-18.23,0-2.25-.4-4-3.33-4.1C178.59,323.18,188.83,323,193.92,323.45Z" transform="translate(114.05 -51.08)"/><path class="cls-1" d="M131.76,323.36h8.78l0.14,0.29-2.14,1.19c2,6.74,5,13.09,7.33,19.84,2.74-4.56,7.18-17.27,7-20.07l-2.3-1.16a50,50,0,0,1,8.35,0c-3.18,1.13-3.87,4-4.93,6.59-2.34,5.68-4.55,11.41-6.81,17.13a10.24,10.24,0,0,1-.6,1.56,7.42,7.42,0,0,1-1.06,1.15,4.74,4.74,0,0,1-1.22-1.24c-1.82-4.51-3.55-9.06-5.35-13.58q-1.37-3.45-2.89-6.84c-0.9-2-1.6-4.27-4.61-4.31Z" transform="translate(114.05 -51.08)"/><path class="cls-1" d="M270.68,323.81a15.22,15.22,0,0,1-.22,5.88c-0.45-1.14-.68-1.88-1-2.56a4.73,4.73,0,0,0-4.68-2.72,3.68,3.68,0,0,0-3.49,2.13,3.75,3.75,0,0,0,.38,4.08,15.35,15.35,0,0,0,2.39,2.33c1.43,1.15,3,2.15,4.41,3.31,3.42,2.76,4.39,5.51,3.15,8.74s-4.61,5.18-8.5,5a12.51,12.51,0,0,1-2.14-.27c-4.05-.85-5.37-3.6-3.63-7.91,0.32,1,.54,1.78.84,2.55a6,6,0,0,0,5.93,4,4.65,4.65,0,0,0,3.92-7.22,12.8,12.8,0,0,0-2.83-2.88c-1.42-1.16-3-2.1-4.43-3.28-2.71-2.27-3.46-4.83-2.4-7.65a7.1,7.1,0,0,1,7-4.49A41.82,41.82,0,0,1,270.68,323.81Z" transform="translate(114.05 -51.08)"/><path class="cls-1" d="M383,349.7H372.38a5.53,5.53,0,0,1,.87-0.58c2.8-.89,2.85-0.89,2.93-3.71,0.23-8.81.92-5.8-3.35-13-1.06-1.78-2.22-3.51-3.34-5.26s-2.15-3.38-4.53-3.44c1.75-.62,5.54-0.72,8.74-0.28l-2,1.08,6.6,11.12c1.55-1.23,5.79-8.15,6.73-11a7.48,7.48,0,0,0-.89-0.6,1.74,1.74,0,0,1-.94-0.68h7.64c-3,.53-4.15,3-5.52,5.14-1.65,2.64-3.22,5.33-4.88,8a5.58,5.58,0,0,0-1,3.37c0.1,1.91,0,3.83.12,5.75,0.12,2.58.2,2.64,2.72,3.42a4.05,4.05,0,0,1,.66.28A1.12,1.12,0,0,1,383,349.7Z" transform="translate(114.05 -51.08)"/><path class="cls-1" d="M347.66,323.18l-0.29,5.56a2.1,2.1,0,0,1-.62-0.18c-0.32-2.48-2-3.24-4.19-3.37l-5.26-.3a12.56,12.56,0,0,0-.33,1.9q0,8.75,0,17.5a16,16,0,0,0,.15,1.67c0.26,2.38.26,2.38,2.52,3a6.53,6.53,0,0,1,.87.35,1,1,0,0,1,0,.37H330.21l-0.09-.28a4.23,4.23,0,0,1,1-.42c2.11-.36,2.42-0.34,2.62-3.24,0.22-3.1.14-6.23,0.15-9.34,0-3,0-5.91,0-8.87,0-.78-0.11-1.55-0.17-2.4a17.69,17.69,0,0,0-7.7.43c-1.62.41-2,1.91-2.8,3.52-0.68-2.23.35-4,.08-5.93h24.41Z" transform="translate(114.05 -51.08)"/><path class="cls-1" d="M113.41,349.74H103l-0.09-.31a7.36,7.36,0,0,1,.94-0.41c2.35-.68,2.5-0.75,2.53-3.28q0.1-9.1,0-18.2c0-2.71-.12-2.71-2.84-3.54a1,1,0,0,1-.55-0.48,47.35,47.35,0,0,1,10.3.19,6.1,6.1,0,0,1-.74.32c-2.59.76-2.69,0.77-2.72,3.39q-0.1,8.74,0,17.48c0,3.24.09,3.85,3.14,4.3A2.15,2.15,0,0,1,113.41,349.74Z" transform="translate(114.05 -51.08)"/><path class="cls-1" d="M303.31,349.72H293.06a1.38,1.38,0,0,1,.3-0.49c3-.95,3.14-0.94,3.19-4,0.09-5.91.06-11.82,0-17.73,0-2.12.35-3-2.84-3.51a5.27,5.27,0,0,1-1-.55h10.74a1.65,1.65,0,0,1-.37.47c-3,1-3.08,1-3.11,4.13-0.06,5.67,0,11.35,0,17,0,0.48,0,1,.09,1.43,0.13,1.31.61,2.29,2.12,2.42a5.58,5.58,0,0,1,1.25.41Z" transform="translate(114.05 -51.08)"/></svg>