<svg id="Layer_1" data-name="Layer 1" xmlns="http://www.w3.org/2000/svg" viewBox="0 0 2148.12 138.44"><defs><style>.cls-1{fill:#fff;}</style></defs><title>full2</title><path class="cls-1" d="M26.9,100.5a115.74,115.74,0,0,0-12.6.5c-0.9.1-.3-1.6-0.1-1.6,7.7-.8,8.1-0.7,8.1-13.6V60c0-12.9-.4-12.9-8.1-13.8-0.3,0-.8-1.5.1-1.5a89,89,0,0,0,11.2.5c2,0,7.7-.3,10.5-0.3,9.8,0,17.9,4.5,17.9,13,0,4.9-4.6,10.1-11,12,9.5,0.4,16.3,6.1,16.3,13.7,0,9.6-8.3,17.2-21.3,17.2C34.8,100.8,29,100.5,26.9,100.5Zm4.9-30.6c10.4,0,14.7-2.8,14.7-10.9,0-8.7-5.2-11.7-12.6-11.7a19.53,19.53,0,0,0-3.4.3c-0.6,2.6-.7,5.8-0.7,12.3V86.2c0,11.2.6,12.2,7.1,12.2,9.5,0,14.5-3.3,14.5-13.4,0-8.4-7.4-14.8-19.6-13.5C31.4,71.6,31.4,69.9,31.8,69.9Z" transform="translate(543.08 -3.01)"/><path class="cls-1" d="M103.4,75.3a57.35,57.35,0,0,1-6.8.5,16.73,16.73,0,0,1-3.4-.2V85.7c0,12.4,0,13,8,13.6,0.3,0,.7,1.7-0.2,1.6-2.7-.3-6.9-0.5-10.7-0.5a115.74,115.74,0,0,0-12.6.5c-0.7.2-.3-1.6-0.1-1.6,7.7-.8,8.1-0.7,8.1-13.6V59.9c0-9.7-.2-12.7-5.1-12.7-0.9,0-2.1.2-3.3,0.3-0.4.1-.9-1.3-0.2-1.5,3.5-1.1,12.1-1.5,21.6-1.5,12.6,0,22.9,3.9,22.9,13.4,0,4.8-3,11.9-12,15.6,4.6,12.4,18.1,27.3,27.8,27.3,0.3,0,.7,1.6-0.1,1.6C117.3,102.4,107.2,88.9,103.4,75.3ZM93.9,47.1q-0.6,2.7-.6,12V73.4c1.2,0.1,1.8,0,3.3,0,12.9,0,17.5-4.6,17.5-11.8,0-11.7-7.7-14.7-16.3-14.7C96.4,46.9,95.4,47,93.9,47.1Z" transform="translate(543.08 -3.01)"/><path class="cls-1" d="M148,101c-0.9.1-.3-1.6-0.1-1.6,7.7-.8,8.1-0.7,8.1-13.6V60c0-12.9-.4-12.9-8.1-13.8-0.3,0-.8-1.5.1-1.5a118.84,118.84,0,0,0,12.7.5c3.6,0,7.9-.2,10.6-0.5,0.9-.1.5,1.5,0.1,1.5-7.8.7-7.8,1.4-7.8,13.8V85.8c0,12.4,0,13,7.8,13.6,0.4,0,.8,1.7-0.1,1.6-2.7-.3-7-0.5-10.6-0.5A117.7,117.7,0,0,0,148,101Z" transform="translate(543.08 -3.01)"/><path class="cls-1" d="M245,95.8c-7.6,4-13.8,6.4-22.1,6.4-19.8,0-31.4-13.2-31.4-28.1,0-14.4,13.6-30.5,32.6-30.5,8.3,0,17,3.9,18.7,5.2,0.6,0.4,1,6.4.6,11.7-0.1.6-1.5,0.3-1.5,0.1-0.5-6.8-8.1-14.4-20-14.4-12.9,0-22.6,9.2-22.6,24.8,0,18.9,12,28.6,24.3,28.6,9.2,0,11.4-2.9,11.9-4.3a27.16,27.16,0,0,0,.5-5.5c0-11.1-.5-11.8-9.6-12.5-0.4,0-.9-1.7.1-1.5a122,122,0,0,0,14.2.5c3.7,0,7.9-.2,10.7-0.5,0.7-.2.5,1.5,0.1,1.5-7.9.6-7.9,2-7.9,12.9C243.6,92.7,243.7,94.8,245,95.8Z" transform="translate(543.08 -3.01)"/><path class="cls-1" d="M308.6,101c-0.7.2-.4-1.5,0-1.6,6.6-.7,7.2-0.8,7.2-13.6V73.6H283.2V85.7c0,12.3.3,13.2,7.3,13.7,0.3,0.1.6,1.6-.3,1.5a91.68,91.68,0,0,0-9.9-.5c-4.9,0-9.7.1-13.4,0.5-0.7.2-.4-1.5,0-1.6,8.7-.9,8.8-0.6,8.8-13.6V60c0-13.1-.1-12.7-8.8-13.8-0.4-.1-0.7-1.6,0-1.5,3.7,0.4,8.5.5,13.4,0.5a91.68,91.68,0,0,0,9.9-.5c0.9-.1.4,1.5,0.2,1.5-7.1.6-7.2,1.5-7.2,13.8V71.3h32.6V60c0-12.8-.6-13-7.2-13.8-0.4-.1-0.7-1.6,0-1.5a104.3,104.3,0,0,0,12,.5c3.6,0,8.7-.2,11.4-0.5,0.7-.2.5,1.5,0.1,1.5-8.9.8-8.7,1.3-8.7,13.8V85.8c0,12.5-.3,12.9,8.7,13.6,0.4,0,.6,1.8-0.1,1.6-2.8-.3-7.8-0.5-11.4-0.5A104.3,104.3,0,0,0,308.6,101Z" transform="translate(543.08 -3.01)"/><path class="cls-1" d="M397.5,100.5a127.77,127.77,0,0,0-13.2.5c-0.7.2-.3-1.6-0.1-1.6,4-.4,6-0.3,6-2.7,0-2.6-1.6-6.5-3.3-10.8L384.3,79H364.7l-3,6.9c-2.2,5.1-3.7,8.4-3.7,10.8,0,2,1.6,2.3,5.5,2.7,0.4,0,.6,1.8-0.1,1.6a63.66,63.66,0,0,0-8.3-.5,52.71,52.71,0,0,0-8.8.5c-0.7.2-.3-1.6-0.1-1.6,5.8-.4,8-4,12.3-13.7l18.7-41.5a0.93,0.93,0,0,1,1.6,0l15.9,41.5c4,10.4,5.6,13.2,12.7,13.8,0.3,0.1.6,1.6-.3,1.5A84.43,84.43,0,0,0,397.5,100.5ZM365.8,76.7h17.7l-8-22Z" transform="translate(543.08 -3.01)"/><path class="cls-1" d="M471,101c-0.7.2-.4-1.5,0-1.6,6.7-.7,7.3-0.9,7.1-13.6l-0.5-30.5-20,45.6a0.89,0.89,0,0,1-1.5-.1L435.6,57.7,435,85.8c-0.2,11.4-.2,12.9,7.8,13.6,0.3,0,.5,1.8-0.2,1.6a70.49,70.49,0,0,0-8.7-.5,69.19,69.19,0,0,0-10.8.5c-0.7.2-.4-1.5,0-1.6,7.7-.9,8-1.6,8.3-13.6L432,55.6c0.1-5.9-3-8.7-9.5-9.4-0.4-.1-0.7-1.7,0-1.5,4.3,0.6,8,.6,15.4.6L459,90.4l12.9-29.5c2.5-5.7,4.9-11.3,6.1-15.8a76,76,0,0,0,15.4-.4c0.9-.1.4,1.5,0.2,1.5-8.9.8-8.9,1.3-8.6,13.7l0.5,25.9c0.3,12.4,0,12.8,9,13.6,0.3,0,.6,1.8-0.1,1.6-2.8-.3-7.7-0.5-11.4-0.5A87.13,87.13,0,0,0,471,101Z" transform="translate(543.08 -3.01)"/><path class="cls-1" d="M573.3,73.1V85.7c0,12.3,0,13,8,13.6,0.3,0,.7,1.7-0.2,1.6-2.7-.3-6.9-0.5-10.7-0.5a115.74,115.74,0,0,0-12.6.5c-0.7.2-.3-1.6-0.1-1.6,7.7-.9,8.1-0.7,8.1-13.6V73.9L558.1,62c-8.4-12.9-10.5-15-17.8-15.8-0.4-.1-0.7-1.6,0-1.5a116.86,116.86,0,0,0,12.6.5c3.7,0,7.9-.2,10.6-0.5,0.9-.1.4,1.5,0.2,1.5-7.6.7-5.8,3.2,2.5,15.5l5.8,8.6,7.4-10.6c8.3-12,9.1-12.6,2.1-13.5-0.4-.1-0.7-1.6,0-1.5a79,79,0,0,0,10.6.5,56.71,56.71,0,0,0,7.8-.5c0.9-.1.5,1.5,0.1,1.5-7.4.6-9,2.5-17.2,13.8Z" transform="translate(543.08 -3.01)"/><path class="cls-1" d="M612.7,73.7c0-14.3,13.3-30.2,32.3-30.2,18.3,0,30.9,13.6,30.9,28.4,0,14.4-13.4,30.3-32.5,30.3C625.2,102.2,612.7,88.6,612.7,73.7Zm7.8-2.8c0,18.9,12.7,28.6,25,28.6,13,0,22.7-9.1,22.7-24.7,0-18.9-12.9-28.7-25.1-28.7C630.1,46.1,620.5,55.3,620.5,70.9Z" transform="translate(543.08 -3.01)"/><path class="cls-1" d="M748.3,80.7c0,11.7-7.9,21.5-23.2,21.5-13.2,0-23.8-8.3-23.8-22.1V60c0-12.9-.3-12.9-7.9-13.8-0.6,0-.9-1.5,0-1.5a118,118,0,0,0,12.6.5c3.7,0,8.1-.2,10.7-0.5,0.9-.1.4,1.5,0.2,1.5-8,.7-8,1.4-8,13.8V78.4c0,13.7,9.6,19.6,18.5,19.6,11.7,0,17.8-6.3,17.8-18.1V59.2c0-10.9-.8-12.1-8.4-13-0.4-.1-0.8-1.5.1-1.5a84.9,84.9,0,0,0,10.9.5,73.52,73.52,0,0,0,8.8-.5c0.9-.1.6,1.5,0.2,1.5-8,.7-8.3,2.6-8.3,13V80.7h-0.2Z" transform="translate(543.08 -3.01)"/><path class="cls-1" d="M830.6,85.8c0,4.3.2,12.1,0.6,15.7a1,1,0,0,1-1.5.1L787.2,57.2V85.8c0,11.4,0,13,8,13.6,0.3,0,.7,1.7-0.2,1.6a70,70,0,0,0-8.6-.5,80.66,80.66,0,0,0-10.7.5c-0.9.1-.3-1.6-0.1-1.6,7.7-.8,8.1-1.6,8.1-13.6V55.6c0-3.9-5.6-8.9-9.6-9.4-0.3,0-.8-1.5.1-1.5a101.84,101.84,0,0,0,12,.6l40.9,43V60c0-12-.3-12.9-8.1-13.8-0.3,0-.6-1.6.1-1.5a81.59,81.59,0,0,0,10.7.5,69.27,69.27,0,0,0,8.7-.5c0.9-.1.7,1.4,0.1,1.5-7.9.7-7.9,2.3-7.9,13.8V85.8h-0.1Z" transform="translate(543.08 -3.01)"/><path class="cls-1" d="M909.4,95.8c-7.6,4-13.8,6.4-22.1,6.4-19.8,0-31.4-13.2-31.4-28.1,0-14.4,13.6-30.5,32.6-30.5,8.3,0,17,3.9,18.7,5.2,0.6,0.4,1,6.4.6,11.7-0.1.6-1.5,0.3-1.5,0.1-0.5-6.8-8.1-14.4-20-14.4-12.9,0-22.6,9.2-22.6,24.8,0,18.9,12,28.6,24.3,28.6,9.2,0,11.4-2.9,11.9-4.3a27.16,27.16,0,0,0,.5-5.5c0-11.1-.5-11.8-9.6-12.5-0.4,0-.9-1.7.1-1.5a122,122,0,0,0,14.2.5c3.7,0,7.9-.2,10.7-0.5,0.7-.2.5,1.5,0.1,1.5-7.9.6-7.9,2-7.9,12.9C908,92.7,908.1,94.8,909.4,95.8Z" transform="translate(543.08 -3.01)"/><path class="cls-1" d="M1013.9,80.7c0,11.7-7.9,21.5-23.2,21.5-13.2,0-23.8-8.3-23.8-22.1V60c0-12.9-.3-12.9-7.9-13.8-0.6,0-.9-1.5,0-1.5a118,118,0,0,0,12.6.5c3.7,0,8.1-.2,10.7-0.5,0.9-.1.4,1.5,0.2,1.5-8,.7-8,1.4-8,13.8V78.4c0,13.7,9.6,19.6,18.5,19.6,11.7,0,17.8-6.3,17.8-18.1V59.2c0-10.9-.8-12.1-8.4-13-0.4-.1-0.8-1.5.1-1.5a84.9,84.9,0,0,0,10.9.5,73.52,73.52,0,0,0,8.8-.5c0.9-.1.6,1.5,0.2,1.5-8,.7-8.3,2.6-8.3,13V80.7h-0.2Z" transform="translate(543.08 -3.01)"/><path class="cls-1" d="M1096.3,85.8c0,4.3.2,12.1,0.6,15.7a1,1,0,0,1-1.5.1l-42.5-44.4V85.8c0,11.4,0,13,8,13.6,0.3,0,.7,1.7-0.2,1.6a70,70,0,0,0-8.6-.5,83.24,83.24,0,0,0-10.8.5c-0.9.1-.3-1.6-0.1-1.6,7.7-.8,8.1-1.6,8.1-13.6V55.6c0-3.9-5.6-8.9-9.6-9.4-0.3,0-.8-1.5.1-1.5a101.84,101.84,0,0,0,12,.6l40.9,43V60c0-12-.3-12.9-8.1-13.8-0.3,0-.6-1.6.1-1.5a81.59,81.59,0,0,0,10.7.5,69.27,69.27,0,0,0,8.7-.5c0.9-.1.7,1.4,0.1,1.5-7.9.7-7.9,2.3-7.9,13.8V85.8h0Z" transform="translate(543.08 -3.01)"/><path class="cls-1" d="M1124.6,101c-0.9.1-.3-1.6-0.1-1.6,7.7-.8,8.1-0.7,8.1-13.6V60c0-12.9-.4-12.9-8.1-13.8-0.3,0-.8-1.5.1-1.5a118.84,118.84,0,0,0,12.7.5c3.6,0,7.9-.2,10.6-0.5,0.9-.1.5,1.5,0.1,1.5-7.8.7-7.8,1.4-7.8,13.8V85.8c0,12.4,0,13,7.8,13.6,0.4,0,.8,1.7-0.1,1.6-2.7-.3-7-0.5-10.6-0.5A117.7,117.7,0,0,0,1124.6,101Z" transform="translate(543.08 -3.01)"/><path class="cls-1" d="M1198.7,101.6a0.85,0.85,0,0,1-1.5-.1L1179.7,60c-4.3-10.1-5.2-13.2-12.8-13.8-0.3,0-.6-1.6.1-1.5a94.57,94.57,0,0,0,9.9.5,127.77,127.77,0,0,0,13.2-.5c0.7-.2.5,1.4,0.1,1.5-4,.5-5.9.5-5.9,2.8,0,1.6,1.3,5.3,3.5,10.8l12.9,31.1,13.8-31.1c2.8-6.4,3.7-8.9,3.7-10.8s-1.7-2.5-5.7-2.8c-0.3,0-.8-1.5.1-1.5a63.66,63.66,0,0,0,8.3.5,50.11,50.11,0,0,0,8.6-.5c0.9-.1.6,1.4,0.2,1.5-6.1.7-7.2,3-12.1,13.8Z" transform="translate(543.08 -3.01)"/><path class="cls-1" d="M1281,100.9c-3.2,0-8.7-.4-15-0.4-8.7,0-17.5.1-23.8,0.5-0.8.1-.3-1.6-0.1-1.6,8.7-.9,8.9-0.6,8.9-13.6V60c0-13.1-.2-12.7-8.9-13.8-0.3,0-.8-1.6.1-1.5,6.3,0.4,14.7.6,23.5,0.6,6.4,0,12.2-.2,17.3-0.6a16.34,16.34,0,0,0-.6,5c0,0.9,0,2.6.1,3.3,0.1,0.4-1.5.3-1.5,0-0.7-3.8-2.5-4.9-13.8-4.9h-8.3a101.66,101.66,0,0,0-.4,11.5v11h8.9c9.5,0,8.8-.7,9.3-2.9,0.1-.3,1.5,0,1.6.2a26.5,26.5,0,0,0-.5,5.3c0,0.9,0,2.7.1,3.4,0.2,0.4-1.5.3-1.5,0.1-0.5-2.7-1-3.7-8.9-3.7h-8.9V85.6c0,11.2,1.4,12.2,5.3,12.2h4.6c13.2,0,13.9-1.1,15.2-6.8,0-.2,1.6-0.2,1.5.3a80.79,80.79,0,0,1-1.6,8C1283,100.7,1282.5,100.9,1281,100.9Z" transform="translate(543.08 -3.01)"/><path class="cls-1" d="M1331.7,75.3a57.35,57.35,0,0,1-6.8.5,17.25,17.25,0,0,1-3.4-.2V85.7c0,12.4,0,13,8,13.6,0.3,0,.7,1.7-0.2,1.6-2.7-.3-6.9-0.5-10.7-0.5a115.74,115.74,0,0,0-12.6.5c-0.7.2-.3-1.6-0.1-1.6,7.7-.8,8.1-0.7,8.1-13.6V59.9c0-9.7-.2-12.7-5.1-12.7-0.9,0-2.1.2-3.3,0.3-0.4.1-.9-1.3-0.2-1.5,3.5-1.1,12.1-1.5,21.6-1.5,12.6,0,22.9,3.9,22.9,13.4,0,4.8-3,11.9-12,15.6,4.6,12.4,18.1,27.3,27.8,27.3,0.3,0,.7,1.6-0.1,1.6C1345.5,102.4,1335.5,88.9,1331.7,75.3Zm-9.6-28.2q-0.6,2.7-.6,12V73.4c1.2,0.1,1.8,0,3.3,0,12.9,0,17.5-4.6,17.5-11.8,0-11.7-7.7-14.7-16.3-14.7C1324.6,46.9,1323.6,47,1322.1,47.1Z" transform="translate(543.08 -3.01)"/><path class="cls-1" d="M1375.7,96.4c-0.4-.3.2-5.3,0.5-11.4,0-.4,1.5-0.3,1.5-0.1,0.6,8.8,5.4,14.5,14.4,14.5,5.8,0,11.4-3.2,11.4-10.1,0-14.3-25.9-14.4-25.9-30,0-7.9,7-15.9,16.9-15.9a21.4,21.4,0,0,1,11.3,2.8c0.7,0.3,1.3,3.6,1.3,9.4,0,0.4-1.7.3-1.7,0.1-1-6.4-5.2-9.6-11.5-9.6-5.4,0-10.3,3.4-10.3,8.8,0,13.7,25.4,13.4,25.4,29.8a17.29,17.29,0,0,1-17.6,17.5A23.63,23.63,0,0,1,1375.7,96.4Z" transform="translate(543.08 -3.01)"/><path class="cls-1" d="M1430.7,101c-0.9.1-.3-1.6-0.1-1.6,7.7-.8,8.1-0.7,8.1-13.6V60c0-12.9-.4-12.9-8.1-13.8-0.3,0-.8-1.5.1-1.5a118.84,118.84,0,0,0,12.7.5c3.6,0,7.9-.2,10.6-0.5,0.9-.1.5,1.5,0.1,1.5-7.8.7-7.8,1.4-7.8,13.8V85.8c0,12.4,0,13,7.8,13.6,0.4,0,.8,1.7-0.1,1.6-2.7-.3-7-0.5-10.6-0.5A118.84,118.84,0,0,0,1430.7,101Z" transform="translate(543.08 -3.01)"/><path class="cls-1" d="M1530.1,54.3c0.1,0.3-1.5.3-1.5,0.1-0.8-3.8-2.1-5.8-13.4-5.8h-9V85.8c0,12.4,0,13,8,13.6,0.4,0,.7,1.7-0.2,1.6-2.7-.3-7-0.5-10.6-0.5a117.7,117.7,0,0,0-12.7.5c-0.7.2-.4-1.5,0-1.6,7.6-.8,7.9-0.7,7.9-13.6V48.6h-9.5c-10.9,0-12.7,1.9-13.8,5.8-0.3.1-1.5,0.1-1.5-.2a48.65,48.65,0,0,0,.4-7.1,28.72,28.72,0,0,0-.4-4.4c-0.2-.3,1.2-0.3,1.5-0.2,0.7,2.8,1.2,3,13.7,3h26.1c12.6,0,13.3-.1,14-3,0-.2,1.6-0.3,1.5.2a33.94,33.94,0,0,0-.7,7.1A31,31,0,0,0,1530.1,54.3Z" transform="translate(543.08 -3.01)"/><path class="cls-1" d="M1577.9,73.1V85.7c0,12.3,0,13,8,13.6,0.3,0,.7,1.7-0.2,1.6-2.7-.3-6.9-0.5-10.7-0.5a115.74,115.74,0,0,0-12.6.5c-0.7.2-.3-1.6-0.1-1.6,7.7-.9,8.1-0.7,8.1-13.6V73.9L1562.7,62c-8.4-12.9-10.5-15-17.8-15.8-0.4-.1-0.7-1.6,0-1.5a116.86,116.86,0,0,0,12.6.5c3.7,0,7.9-.2,10.6-0.5,0.9-.1.4,1.5,0.2,1.5-7.6.7-5.8,3.2,2.5,15.5l5.8,8.6,7.4-10.6c8.3-12,9.1-12.6,2.1-13.5-0.4-.1-0.7-1.6,0-1.5a79,79,0,0,0,10.6.5,56.71,56.71,0,0,0,7.8-.5c0.9-.1.5,1.5,0.1,1.5-7.4.6-9,2.5-17.2,13.8Z" transform="translate(543.08 -3.01)"/><path class="cls-1" d="M-420,66.43c1.9,0.64,3.76,1.18,5.56,1.88,11,4.26,17.17,12.35,18.83,23.94A44.11,44.11,0,0,1-397.21,113c-3.18,9.36-9.71,15.65-18.52,19.76a66.18,66.18,0,0,1-19.55,5.3,134.82,134.82,0,0,1-17.78.9l-88.49,0a2,2,0,0,1-1.33-.33,1,1,0,0,1,.65-1.48c2-.41,3.95-0.77,5.91-1.21a11.53,11.53,0,0,0,1.89-.68c2.49-1,3.6-2.79,3.6-5.6q-0.08-58.41,0-116.82c0-3.9-.86-5.24-4.61-6.45A54.27,54.27,0,0,0-541.88,5c-0.71-.14-1.2-0.29-1.12-1.17S-542.35,3-541.78,3c30.38,0,60.76,0,91.14,0A107.22,107.22,0,0,1-424,6a42.12,42.12,0,0,1,11.54,4.68A24.64,24.64,0,0,1-401,26.19a42.11,42.11,0,0,1,0,21.19c-2.47,9.49-8.78,15.38-17.91,18.48-0.3.1-.6,0.21-0.89,0.32A0.88,0.88,0,0,0-420,66.43Zm-67.53,46.18c1.51,0,2.95,0,4.38,0,7.28-.09,14.56-0.05,21.83-0.34a24.62,24.62,0,0,0,11.5-3.3,13.05,13.05,0,0,0,6.7-9.2,26.4,26.4,0,0,0,.29-6c-0.32-6.18-3.68-10.55-9.51-12.59a32.66,32.66,0,0,0-10.42-1.68c-7-.1-13.93-0.08-20.89-0.1h-3.89v33.22Zm0-54.23c0.21,0,.35,0,0.48,0q10.5-.07,21-0.14a33,33,0,0,0,11.66-1.78c4.19-1.58,7.3-4.27,8.64-8.67a18.35,18.35,0,0,0,.29-8.71c-0.78-4.3-3.15-7.35-7.33-8.64A30.06,30.06,0,0,0-460.63,29c-7.59-.25-15.19-0.2-22.79-0.28-1.2,0-2.4-.12-3.59-0.17a3.82,3.82,0,0,0-.59.05V58.39Z" transform="translate(543.08 -3.01)"/><path class="cls-1" d="M-209.54,49.44q0-18.15,0-36.29a18.09,18.09,0,0,0-.21-2.74A6.07,6.07,0,0,0-215.6,5c-0.46,0-.92-0.1-1.37-0.12-0.74,0-.83-0.53-0.83-1.1A0.7,0.7,0,0,1-216.88,3c0.18,0,.35,0,0.53,0q31,0,62.08,0a1.82,1.82,0,0,1,1.29.39c0.49,0.64.05,1.32-.8,1.49-1.73.34-3.46,0.68-5.18,1.05a9.53,9.53,0,0,0-1.39.5c-2.89,1.13-4.18,3.08-4.16,6.34,0.1,23.13,0,46.27.06,69.4a32.26,32.26,0,0,0,2.92,14.2A22.5,22.5,0,0,0-146.39,109a31.91,31.91,0,0,0,19.1-.59c8.56-3,13.39-9.38,15.3-18a38.36,38.36,0,0,0,.85-8.09c0.07-23.31,0-46.62.07-69.93a5.45,5.45,0,0,0-3.25-5.42A21.24,21.24,0,0,0-121.53,5c-0.69-.08-1.29-0.19-1.19-1.1A0.74,0.74,0,0,1-121.85,3c0.25,0,.49,0,0.74,0q32.9,0,65.79,0a1.73,1.73,0,0,1,1.3.48c0.41,0.71,0,1.24-.83,1.4-1.87.36-3.75,0.71-5.61,1.09a8.6,8.6,0,0,0-1.51.5c-3.31,1.36-4.09,2.53-4.09,6.1,0,23.27,0,46.55,0,69.82a63,63,0,0,1-5.77,27.25c-5.45,11.47-14.31,19.39-25.8,24.5a84,84,0,0,1-25,6.4,136.73,136.73,0,0,1-23.2.59c-11.54-.67-22.81-2.61-33.36-7.62-16.32-7.75-25.77-20.73-29-38.38a80.08,80.08,0,0,1-1.23-14.56q0-15.6,0-31.2h0Z" transform="translate(543.08 -3.01)"/><path class="cls-1" d="M-395.33,3h65.74c0.47,0,1.16-.28,1.25.56s-0.06,1.26-1,1.22a13.43,13.43,0,0,0-2,.11c-3.07.31-4.36,2.14-3.48,5.16a16.93,16.93,0,0,0,1.72,4.09c4.22,6.9,8.46,13.79,12.83,20.59,3.23,5,6.7,9.89,10,14.86,0.93,1.4,1.66,2.93,2.33,4.13C-304.74,47.27-300,41.37-296,35c4.42-7.07,8.89-14.11,13.23-21.23A16.06,16.06,0,0,0-280.86,9c0.48-2.15-.53-3.43-2.71-3.89a14.67,14.67,0,0,0-2.84-.25,0.9,0.9,0,0,1-1.09-1.05c0-.8.52-0.78,1.08-0.78h61.86c0.77,0,1.42.06,1.17,1.06a1.09,1.09,0,0,1-.72.71c-4.41.11-7.39,2.68-9.8,5.94C-237.05,15-240,19.4-243,23.8q-20.19,29.93-40.35,59.88A4,4,0,0,0-284,86c0,14.5.07,29,0,43.5,0,3,1.2,4.93,3.91,5.8a72.47,72.47,0,0,0,7.4,1.74,0.85,0.85,0,0,1,.83,1.15,1.43,1.43,0,0,1-.7.7,1.66,1.66,0,0,1-.73,0h-70.14a2.25,2.25,0,0,1-1.21-.17,1.23,1.23,0,0,1-.21-1.06,1.06,1.06,0,0,1,.72-0.57c1.8-.38,3.64-0.57,5.39-1.1a21.74,21.74,0,0,0,4.3-2,3.42,3.42,0,0,0,1.63-3c0-.53,0-1.06,0-1.59q0-22,0-43.93a3.69,3.69,0,0,0-.59-1.94q-23.32-34.6-46.7-69.16a55.43,55.43,0,0,0-4.15-5.36A12.45,12.45,0,0,0-393.21,5c-0.35,0-.71,0-1.06-0.06C-395.61,4.79-395.8,4.47-395.33,3Z" transform="translate(543.08 -3.01)"/></svg>