<svg id="Layer_1" data-name="Layer 1" xmlns="http://www.w3.org/2000/svg" viewBox="0 0 2199.12 156.55"><defs><style>.cls-1{fill:#fff;}</style></defs><title>full</title><path class="cls-1" d="M26.9,100.5a115.74,115.74,0,0,0-12.6.5c-0.9.1-.3-1.6-0.1-1.6,7.7-.8,8.1-0.7,8.1-13.6V60c0-12.9-.4-12.9-8.1-13.8-0.3,0-.8-1.5.1-1.5a89,89,0,0,0,11.2.5c2,0,7.7-.3,10.5-0.3,9.8,0,17.9,4.5,17.9,13,0,4.9-4.6,10.1-11,12,9.5,0.4,16.3,6.1,16.3,13.7,0,9.6-8.3,17.2-21.3,17.2C34.8,100.8,29,100.5,26.9,100.5Zm4.9-30.6c10.4,0,14.7-2.8,14.7-10.9,0-8.7-5.2-11.7-12.6-11.7a19.53,19.53,0,0,0-3.4.3c-0.6,2.6-.7,5.8-0.7,12.3V86.2c0,11.2.6,12.2,7.1,12.2,9.5,0,14.5-3.3,14.5-13.4,0-8.4-7.4-14.8-19.6-13.5C31.4,71.6,31.4,69.9,31.8,69.9Z" transform="translate(594.08 -1.9)"/><path class="cls-1" d="M103.4,75.3a57.35,57.35,0,0,1-6.8.5,16.73,16.73,0,0,1-3.4-.2V85.7c0,12.4,0,13,8,13.6,0.3,0,.7,1.7-0.2,1.6-2.7-.3-6.9-0.5-10.7-0.5a115.74,115.74,0,0,0-12.6.5c-0.7.2-.3-1.6-0.1-1.6,7.7-.8,8.1-0.7,8.1-13.6V59.9c0-9.7-.2-12.7-5.1-12.7-0.9,0-2.1.2-3.3,0.3-0.4.1-.9-1.3-0.2-1.5,3.5-1.1,12.1-1.5,21.6-1.5,12.6,0,22.9,3.9,22.9,13.4,0,4.8-3,11.9-12,15.6,4.6,12.4,18.1,27.3,27.8,27.3,0.3,0,.7,1.6-0.1,1.6C117.3,102.4,107.2,88.9,103.4,75.3ZM93.9,47.1q-0.6,2.7-.6,12V73.4c1.2,0.1,1.8,0,3.3,0,12.9,0,17.5-4.6,17.5-11.8,0-11.7-7.7-14.7-16.3-14.7C96.4,46.9,95.4,47,93.9,47.1Z" transform="translate(594.08 -1.9)"/><path class="cls-1" d="M148,101c-0.9.1-.3-1.6-0.1-1.6,7.7-.8,8.1-0.7,8.1-13.6V60c0-12.9-.4-12.9-8.1-13.8-0.3,0-.8-1.5.1-1.5a118.84,118.84,0,0,0,12.7.5c3.6,0,7.9-.2,10.6-0.5,0.9-.1.5,1.5,0.1,1.5-7.8.7-7.8,1.4-7.8,13.8V85.8c0,12.4,0,13,7.8,13.6,0.4,0,.8,1.7-0.1,1.6-2.7-.3-7-0.5-10.6-0.5A117.7,117.7,0,0,0,148,101Z" transform="translate(594.08 -1.9)"/><path class="cls-1" d="M245,95.8c-7.6,4-13.8,6.4-22.1,6.4-19.8,0-31.4-13.2-31.4-28.1,0-14.4,13.6-30.5,32.6-30.5,8.3,0,17,3.9,18.7,5.2,0.6,0.4,1,6.4.6,11.7-0.1.6-1.5,0.3-1.5,0.1-0.5-6.8-8.1-14.4-20-14.4-12.9,0-22.6,9.2-22.6,24.8,0,18.9,12,28.6,24.3,28.6,9.2,0,11.4-2.9,11.9-4.3a27.16,27.16,0,0,0,.5-5.5c0-11.1-.5-11.8-9.6-12.5-0.4,0-.9-1.7.1-1.5a122,122,0,0,0,14.2.5c3.7,0,7.9-.2,10.7-0.5,0.7-.2.5,1.5,0.1,1.5-7.9.6-7.9,2-7.9,12.9C243.6,92.7,243.7,94.8,245,95.8Z" transform="translate(594.08 -1.9)"/><path class="cls-1" d="M308.6,101c-0.7.2-.4-1.5,0-1.6,6.6-.7,7.2-0.8,7.2-13.6V73.6H283.2V85.7c0,12.3.3,13.2,7.3,13.7,0.3,0.1.6,1.6-.3,1.5a91.68,91.68,0,0,0-9.9-.5c-4.9,0-9.7.1-13.4,0.5-0.7.2-.4-1.5,0-1.6,8.7-.9,8.8-0.6,8.8-13.6V60c0-13.1-.1-12.7-8.8-13.8-0.4-.1-0.7-1.6,0-1.5,3.7,0.4,8.5.5,13.4,0.5a91.68,91.68,0,0,0,9.9-.5c0.9-.1.4,1.5,0.2,1.5-7.1.6-7.2,1.5-7.2,13.8V71.3h32.6V60c0-12.8-.6-13-7.2-13.8-0.4-.1-0.7-1.6,0-1.5a104.3,104.3,0,0,0,12,.5c3.6,0,8.7-.2,11.4-0.5,0.7-.2.5,1.5,0.1,1.5-8.9.8-8.7,1.3-8.7,13.8V85.8c0,12.5-.3,12.9,8.7,13.6,0.4,0,.6,1.8-0.1,1.6-2.8-.3-7.8-0.5-11.4-0.5A104.3,104.3,0,0,0,308.6,101Z" transform="translate(594.08 -1.9)"/><path class="cls-1" d="M397.5,100.5a127.77,127.77,0,0,0-13.2.5c-0.7.2-.3-1.6-0.1-1.6,4-.4,6-0.3,6-2.7,0-2.6-1.6-6.5-3.3-10.8L384.3,79H364.7l-3,6.9c-2.2,5.1-3.7,8.4-3.7,10.8,0,2,1.6,2.3,5.5,2.7,0.4,0,.6,1.8-0.1,1.6a63.66,63.66,0,0,0-8.3-.5,52.71,52.71,0,0,0-8.8.5c-0.7.2-.3-1.6-0.1-1.6,5.8-.4,8-4,12.3-13.7l18.7-41.5a0.93,0.93,0,0,1,1.6,0l15.9,41.5c4,10.4,5.6,13.2,12.7,13.8,0.3,0.1.6,1.6-.3,1.5A84.43,84.43,0,0,0,397.5,100.5ZM365.8,76.7h17.7l-8-22Z" transform="translate(594.08 -1.9)"/><path class="cls-1" d="M471,101c-0.7.2-.4-1.5,0-1.6,6.7-.7,7.3-0.9,7.1-13.6l-0.5-30.5-20,45.6a0.89,0.89,0,0,1-1.5-.1L435.6,57.7,435,85.8c-0.2,11.4-.2,12.9,7.8,13.6,0.3,0,.5,1.8-0.2,1.6a70.49,70.49,0,0,0-8.7-.5,69.19,69.19,0,0,0-10.8.5c-0.7.2-.4-1.5,0-1.6,7.7-.9,8-1.6,8.3-13.6L432,55.6c0.1-5.9-3-8.7-9.5-9.4-0.4-.1-0.7-1.7,0-1.5,4.3,0.6,8,.6,15.4.6L459,90.4l12.9-29.5c2.5-5.7,4.9-11.3,6.1-15.8a76,76,0,0,0,15.4-.4c0.9-.1.4,1.5,0.2,1.5-8.9.8-8.9,1.3-8.6,13.7l0.5,25.9c0.3,12.4,0,12.8,9,13.6,0.3,0,.6,1.8-0.1,1.6-2.8-.3-7.7-0.5-11.4-0.5A87.13,87.13,0,0,0,471,101Z" transform="translate(594.08 -1.9)"/><path class="cls-1" d="M573.3,73.1V85.7c0,12.3,0,13,8,13.6,0.3,0,.7,1.7-0.2,1.6-2.7-.3-6.9-0.5-10.7-0.5a115.74,115.74,0,0,0-12.6.5c-0.7.2-.3-1.6-0.1-1.6,7.7-.9,8.1-0.7,8.1-13.6V73.9L558.1,62c-8.4-12.9-10.5-15-17.8-15.8-0.4-.1-0.7-1.6,0-1.5a116.86,116.86,0,0,0,12.6.5c3.7,0,7.9-.2,10.6-0.5,0.9-.1.4,1.5,0.2,1.5-7.6.7-5.8,3.2,2.5,15.5l5.8,8.6,7.4-10.6c8.3-12,9.1-12.6,2.1-13.5-0.4-.1-0.7-1.6,0-1.5a79,79,0,0,0,10.6.5,56.71,56.71,0,0,0,7.8-.5c0.9-.1.5,1.5,0.1,1.5-7.4.6-9,2.5-17.2,13.8Z" transform="translate(594.08 -1.9)"/><path class="cls-1" d="M612.7,73.7c0-14.3,13.3-30.2,32.3-30.2,18.3,0,30.9,13.6,30.9,28.4,0,14.4-13.4,30.3-32.5,30.3C625.2,102.2,612.7,88.6,612.7,73.7Zm7.8-2.8c0,18.9,12.7,28.6,25,28.6,13,0,22.7-9.1,22.7-24.7,0-18.9-12.9-28.7-25.1-28.7C630.1,46.1,620.5,55.3,620.5,70.9Z" transform="translate(594.08 -1.9)"/><path class="cls-1" d="M748.3,80.7c0,11.7-7.9,21.5-23.2,21.5-13.2,0-23.8-8.3-23.8-22.1V60c0-12.9-.3-12.9-7.9-13.8-0.6,0-.9-1.5,0-1.5a118,118,0,0,0,12.6.5c3.7,0,8.1-.2,10.7-0.5,0.9-.1.4,1.5,0.2,1.5-8,.7-8,1.4-8,13.8V78.4c0,13.7,9.6,19.6,18.5,19.6,11.7,0,17.8-6.3,17.8-18.1V59.2c0-10.9-.8-12.1-8.4-13-0.4-.1-0.8-1.5.1-1.5a84.9,84.9,0,0,0,10.9.5,73.52,73.52,0,0,0,8.8-.5c0.9-.1.6,1.5,0.2,1.5-8,.7-8.3,2.6-8.3,13V80.7h-0.2Z" transform="translate(594.08 -1.9)"/><path class="cls-1" d="M830.6,85.8c0,4.3.2,12.1,0.6,15.7a1,1,0,0,1-1.5.1L787.2,57.2V85.8c0,11.4,0,13,8,13.6,0.3,0,.7,1.7-0.2,1.6a70,70,0,0,0-8.6-.5,80.66,80.66,0,0,0-10.7.5c-0.9.1-.3-1.6-0.1-1.6,7.7-.8,8.1-1.6,8.1-13.6V55.6c0-3.9-5.6-8.9-9.6-9.4-0.3,0-.8-1.5.1-1.5a101.84,101.84,0,0,0,12,.6l40.9,43V60c0-12-.3-12.9-8.1-13.8-0.3,0-.6-1.6.1-1.5a81.59,81.59,0,0,0,10.7.5,69.27,69.27,0,0,0,8.7-.5c0.9-.1.7,1.4,0.1,1.5-7.9.7-7.9,2.3-7.9,13.8V85.8h-0.1Z" transform="translate(594.08 -1.9)"/><path class="cls-1" d="M909.4,95.8c-7.6,4-13.8,6.4-22.1,6.4-19.8,0-31.4-13.2-31.4-28.1,0-14.4,13.6-30.5,32.6-30.5,8.3,0,17,3.9,18.7,5.2,0.6,0.4,1,6.4.6,11.7-0.1.6-1.5,0.3-1.5,0.1-0.5-6.8-8.1-14.4-20-14.4-12.9,0-22.6,9.2-22.6,24.8,0,18.9,12,28.6,24.3,28.6,9.2,0,11.4-2.9,11.9-4.3a27.16,27.16,0,0,0,.5-5.5c0-11.1-.5-11.8-9.6-12.5-0.4,0-.9-1.7.1-1.5a122,122,0,0,0,14.2.5c3.7,0,7.9-.2,10.7-0.5,0.7-.2.5,1.5,0.1,1.5-7.9.6-7.9,2-7.9,12.9C908,92.7,908.1,94.8,909.4,95.8Z" transform="translate(594.08 -1.9)"/><path class="cls-1" d="M1013.9,80.7c0,11.7-7.9,21.5-23.2,21.5-13.2,0-23.8-8.3-23.8-22.1V60c0-12.9-.3-12.9-7.9-13.8-0.6,0-.9-1.5,0-1.5a118,118,0,0,0,12.6.5c3.7,0,8.1-.2,10.7-0.5,0.9-.1.4,1.5,0.2,1.5-8,.7-8,1.4-8,13.8V78.4c0,13.7,9.6,19.6,18.5,19.6,11.7,0,17.8-6.3,17.8-18.1V59.2c0-10.9-.8-12.1-8.4-13-0.4-.1-0.8-1.5.1-1.5a84.9,84.9,0,0,0,10.9.5,73.52,73.52,0,0,0,8.8-.5c0.9-.1.6,1.5,0.2,1.5-8,.7-8.3,2.6-8.3,13V80.7h-0.2Z" transform="translate(594.08 -1.9)"/><path class="cls-1" d="M1096.3,85.8c0,4.3.2,12.1,0.6,15.7a1,1,0,0,1-1.5.1l-42.5-44.4V85.8c0,11.4,0,13,8,13.6,0.3,0,.7,1.7-0.2,1.6a70,70,0,0,0-8.6-.5,83.24,83.24,0,0,0-10.8.5c-0.9.1-.3-1.6-0.1-1.6,7.7-.8,8.1-1.6,8.1-13.6V55.6c0-3.9-5.6-8.9-9.6-9.4-0.3,0-.8-1.5.1-1.5a101.84,101.84,0,0,0,12,.6l40.9,43V60c0-12-.3-12.9-8.1-13.8-0.3,0-.6-1.6.1-1.5a81.59,81.59,0,0,0,10.7.5,69.27,69.27,0,0,0,8.7-.5c0.9-.1.7,1.4,0.1,1.5-7.9.7-7.9,2.3-7.9,13.8V85.8h0Z" transform="translate(594.08 -1.9)"/><path class="cls-1" d="M1124.6,101c-0.9.1-.3-1.6-0.1-1.6,7.7-.8,8.1-0.7,8.1-13.6V60c0-12.9-.4-12.9-8.1-13.8-0.3,0-.8-1.5.1-1.5a118.84,118.84,0,0,0,12.7.5c3.6,0,7.9-.2,10.6-0.5,0.9-.1.5,1.5,0.1,1.5-7.8.7-7.8,1.4-7.8,13.8V85.8c0,12.4,0,13,7.8,13.6,0.4,0,.8,1.7-0.1,1.6-2.7-.3-7-0.5-10.6-0.5A117.7,117.7,0,0,0,1124.6,101Z" transform="translate(594.08 -1.9)"/><path class="cls-1" d="M1198.7,101.6a0.85,0.85,0,0,1-1.5-.1L1179.7,60c-4.3-10.1-5.2-13.2-12.8-13.8-0.3,0-.6-1.6.1-1.5a94.57,94.57,0,0,0,9.9.5,127.77,127.77,0,0,0,13.2-.5c0.7-.2.5,1.4,0.1,1.5-4,.5-5.9.5-5.9,2.8,0,1.6,1.3,5.3,3.5,10.8l12.9,31.1,13.8-31.1c2.8-6.4,3.7-8.9,3.7-10.8s-1.7-2.5-5.7-2.8c-0.3,0-.8-1.5.1-1.5a63.66,63.66,0,0,0,8.3.5,50.11,50.11,0,0,0,8.6-.5c0.9-.1.6,1.4,0.2,1.5-6.1.7-7.2,3-12.1,13.8Z" transform="translate(594.08 -1.9)"/><path class="cls-1" d="M1281,100.9c-3.2,0-8.7-.4-15-0.4-8.7,0-17.5.1-23.8,0.5-0.8.1-.3-1.6-0.1-1.6,8.7-.9,8.9-0.6,8.9-13.6V60c0-13.1-.2-12.7-8.9-13.8-0.3,0-.8-1.6.1-1.5,6.3,0.4,14.7.6,23.5,0.6,6.4,0,12.2-.2,17.3-0.6a16.34,16.34,0,0,0-.6,5c0,0.9,0,2.6.1,3.3,0.1,0.4-1.5.3-1.5,0-0.7-3.8-2.5-4.9-13.8-4.9h-8.3a101.66,101.66,0,0,0-.4,11.5v11h8.9c9.5,0,8.8-.7,9.3-2.9,0.1-.3,1.5,0,1.6.2a26.5,26.5,0,0,0-.5,5.3c0,0.9,0,2.7.1,3.4,0.2,0.4-1.5.3-1.5,0.1-0.5-2.7-1-3.7-8.9-3.7h-8.9V85.6c0,11.2,1.4,12.2,5.3,12.2h4.6c13.2,0,13.9-1.1,15.2-6.8,0-.2,1.6-0.2,1.5.3a80.79,80.79,0,0,1-1.6,8C1283,100.7,1282.5,100.9,1281,100.9Z" transform="translate(594.08 -1.9)"/><path class="cls-1" d="M1331.7,75.3a57.35,57.35,0,0,1-6.8.5,17.25,17.25,0,0,1-3.4-.2V85.7c0,12.4,0,13,8,13.6,0.3,0,.7,1.7-0.2,1.6-2.7-.3-6.9-0.5-10.7-0.5a115.74,115.74,0,0,0-12.6.5c-0.7.2-.3-1.6-0.1-1.6,7.7-.8,8.1-0.7,8.1-13.6V59.9c0-9.7-.2-12.7-5.1-12.7-0.9,0-2.1.2-3.3,0.3-0.4.1-.9-1.3-0.2-1.5,3.5-1.1,12.1-1.5,21.6-1.5,12.6,0,22.9,3.9,22.9,13.4,0,4.8-3,11.9-12,15.6,4.6,12.4,18.1,27.3,27.8,27.3,0.3,0,.7,1.6-0.1,1.6C1345.5,102.4,1335.5,88.9,1331.7,75.3Zm-9.6-28.2q-0.6,2.7-.6,12V73.4c1.2,0.1,1.8,0,3.3,0,12.9,0,17.5-4.6,17.5-11.8,0-11.7-7.7-14.7-16.3-14.7C1324.6,46.9,1323.6,47,1322.1,47.1Z" transform="translate(594.08 -1.9)"/><path class="cls-1" d="M1375.7,96.4c-0.4-.3.2-5.3,0.5-11.4,0-.4,1.5-0.3,1.5-0.1,0.6,8.8,5.4,14.5,14.4,14.5,5.8,0,11.4-3.2,11.4-10.1,0-14.3-25.9-14.4-25.9-30,0-7.9,7-15.9,16.9-15.9a21.4,21.4,0,0,1,11.3,2.8c0.7,0.3,1.3,3.6,1.3,9.4,0,0.4-1.7.3-1.7,0.1-1-6.4-5.2-9.6-11.5-9.6-5.4,0-10.3,3.4-10.3,8.8,0,13.7,25.4,13.4,25.4,29.8a17.29,17.29,0,0,1-17.6,17.5A23.63,23.63,0,0,1,1375.7,96.4Z" transform="translate(594.08 -1.9)"/><path class="cls-1" d="M1430.7,101c-0.9.1-.3-1.6-0.1-1.6,7.7-.8,8.1-0.7,8.1-13.6V60c0-12.9-.4-12.9-8.1-13.8-0.3,0-.8-1.5.1-1.5a118.84,118.84,0,0,0,12.7.5c3.6,0,7.9-.2,10.6-0.5,0.9-.1.5,1.5,0.1,1.5-7.8.7-7.8,1.4-7.8,13.8V85.8c0,12.4,0,13,7.8,13.6,0.4,0,.8,1.7-0.1,1.6-2.7-.3-7-0.5-10.6-0.5A118.84,118.84,0,0,0,1430.7,101Z" transform="translate(594.08 -1.9)"/><path class="cls-1" d="M1530.1,54.3c0.1,0.3-1.5.3-1.5,0.1-0.8-3.8-2.1-5.8-13.4-5.8h-9V85.8c0,12.4,0,13,8,13.6,0.4,0,.7,1.7-0.2,1.6-2.7-.3-7-0.5-10.6-0.5a117.7,117.7,0,0,0-12.7.5c-0.7.2-.4-1.5,0-1.6,7.6-.8,7.9-0.7,7.9-13.6V48.6h-9.5c-10.9,0-12.7,1.9-13.8,5.8-0.3.1-1.5,0.1-1.5-.2a48.65,48.65,0,0,0,.4-7.1,28.72,28.72,0,0,0-.4-4.4c-0.2-.3,1.2-0.3,1.5-0.2,0.7,2.8,1.2,3,13.7,3h26.1c12.6,0,13.3-.1,14-3,0-.2,1.6-0.3,1.5.2a33.94,33.94,0,0,0-.7,7.1A31,31,0,0,0,1530.1,54.3Z" transform="translate(594.08 -1.9)"/><path class="cls-1" d="M1577.9,73.1V85.7c0,12.3,0,13,8,13.6,0.3,0,.7,1.7-0.2,1.6-2.7-.3-6.9-0.5-10.7-0.5a115.74,115.74,0,0,0-12.6.5c-0.7.2-.3-1.6-0.1-1.6,7.7-.9,8.1-0.7,8.1-13.6V73.9L1562.7,62c-8.4-12.9-10.5-15-17.8-15.8-0.4-.1-0.7-1.6,0-1.5a116.86,116.86,0,0,0,12.6.5c3.7,0,7.9-.2,10.6-0.5,0.9-.1.4,1.5,0.2,1.5-7.6.7-5.8,3.2,2.5,15.5l5.8,8.6,7.4-10.6c8.3-12,9.1-12.6,2.1-13.5-0.4-.1-0.7-1.6,0-1.5a79,79,0,0,0,10.6.5,56.71,56.71,0,0,0,7.8-.5c0.9-.1.5,1.5,0.1,1.5-7.4.6-9,2.5-17.2,13.8Z" transform="translate(594.08 -1.9)"/><path class="cls-1" d="M-454.93,73.62c2.15,0.72,4.26,1.33,6.29,2.12,12.43,4.82,19.41,14,21.29,27.08a49.89,49.89,0,0,1-1.78,23.45c-3.6,10.59-11,17.7-20.95,22.35a74.84,74.84,0,0,1-22.1,6,152.46,152.46,0,0,1-20.11,1l-100.06,0a2.31,2.31,0,0,1-1.51-.37,1.08,1.08,0,0,1,.73-1.68c2.23-.46,4.46-0.87,6.68-1.36a13,13,0,0,0,2.14-.77c2.82-1.17,4.07-3.16,4.07-6.33q-0.09-66,0-132.1c0-4.41-1-5.93-5.22-7.29a61.37,61.37,0,0,0-7.24-1.57C-593.53,4-594.08,3.8-594,2.8s0.74-.87,1.38-0.87c34.35,0,68.71,0,103.06,0,10.12,0,20.21.76,30.07,3.3a47.63,47.63,0,0,1,13,5.29,27.86,27.86,0,0,1,13,17.53,47.62,47.62,0,0,1-.05,24c-2.8,10.74-9.93,17.4-20.25,20.9-0.34.11-.68,0.23-1,0.36A1,1,0,0,0-454.93,73.62Zm-76.36,52.22c1.71,0,3.33,0,5,0,8.23-.1,16.47-0.06,24.69-0.38a27.85,27.85,0,0,0,13-3.74,14.76,14.76,0,0,0,7.58-10.4,29.86,29.86,0,0,0,.33-6.79c-0.36-7-4.17-11.93-10.76-14.24a36.93,36.93,0,0,0-11.78-1.89c-7.87-.11-15.75-0.08-23.62-0.11h-4.4v37.57Zm-0.06-61.32c0.24,0,.39.05,0.54,0q11.87-.08,23.74-0.16a37.34,37.34,0,0,0,13.19-2c4.73-1.79,8.26-4.83,9.77-9.81a20.75,20.75,0,0,0,.33-9.85c-0.88-4.87-3.56-8.31-8.29-9.77a34,34,0,0,0-8.78-1.66C-509.43,31-518,31.09-526.62,31c-1.36,0-2.71-.13-4.07-0.19a4.32,4.32,0,0,0-.66.06V64.52Z" transform="translate(594.08 -1.9)"/><path class="cls-1" d="M-216.9,54.41q0-20.52,0-41a20.45,20.45,0,0,0-.24-3.1,6.87,6.87,0,0,0-6.61-6.14c-0.52,0-1-.11-1.55-0.13-0.84,0-.94-0.6-0.94-1.24a0.79,0.79,0,0,1,1-.82c0.2,0,.4,0,0.6,0q35.1,0,70.2,0a2.05,2.05,0,0,1,1.45.44c0.56,0.72.06,1.5-.91,1.69-2,.38-3.91.77-5.86,1.19a10.77,10.77,0,0,0-1.58.56C-164.57,7.11-166,9.32-166,13c0.11,26.16.05,52.32,0.06,78.48a36.48,36.48,0,0,0,3.3,16.06,25.45,25.45,0,0,0,17.15,14.19,36.08,36.08,0,0,0,21.6-.66c9.68-3.42,15.15-10.61,17.31-20.41a43.38,43.38,0,0,0,1-9.15c0.07-26.36,0-52.72.08-79.08a6.17,6.17,0,0,0-3.68-6.13,24,24,0,0,0-8.16-2.19c-0.78-.09-1.46-0.22-1.34-1.25a0.84,0.84,0,0,1,1-.93c0.28,0,.56,0,0.84,0q37.2,0,74.4,0A2,2,0,0,1-41,2.5c0.46,0.8,0,1.4-.94,1.58-2.12.41-4.24,0.8-6.35,1.23a9.73,9.73,0,0,0-1.7.56c-3.75,1.54-4.63,2.86-4.63,6.9,0,26.32,0,52.64,0,79,0,10.7-1.9,21.08-6.53,30.82-6.17,13-16.19,21.92-29.18,27.7a95,95,0,0,1-28.32,7.24,154.62,154.62,0,0,1-26.23.67c-13.05-.76-25.8-3-37.72-8.62-18.45-8.76-29.15-23.44-32.83-43.4a90.55,90.55,0,0,1-1.39-16.47q0-17.64,0-35.28h0Z" transform="translate(594.08 -1.9)"/><path class="cls-1" d="M-427,1.93h74.34c0.53,0,1.31-.32,1.42.63S-351.31,4-352.37,4a15.18,15.18,0,0,0-2.27.12c-3.47.36-4.93,2.42-3.94,5.83a19.14,19.14,0,0,0,1.94,4.62c4.78,7.8,9.57,15.59,14.51,23.29,3.65,5.68,7.58,11.18,11.32,16.81,1.05,1.58,1.88,3.31,2.64,4.66,3.61-7.34,9-14,13.48-21.21,5-8,10-16,15-24a18.16,18.16,0,0,0,2.17-5.39c0.55-2.43-.6-3.88-3.06-4.4A16.59,16.59,0,0,0-303.84,4a1,1,0,0,1-1.23-1.19c0-.9.59-0.88,1.22-0.88h70c0.87,0,1.61.07,1.33,1.19a1.23,1.23,0,0,1-.81.8c-5,.12-8.36,3-11.08,6.72-3.56,4.82-6.9,9.8-10.25,14.77q-22.83,33.85-45.63,67.72a4.47,4.47,0,0,0-.81,2.66c0,16.4.08,32.8,0,49.19,0,3.4,1.36,5.58,4.42,6.56a82,82,0,0,0,8.37,2,1,1,0,0,1,.94,1.3,1.62,1.62,0,0,1-.79.79,1.88,1.88,0,0,1-.83,0h-79.31a2.54,2.54,0,0,1-1.37-.19,1.39,1.39,0,0,1-.24-1.2,1.2,1.2,0,0,1,.82-0.65c2-.43,4.12-0.64,6.1-1.24a24.59,24.59,0,0,0,4.86-2.22,3.87,3.87,0,0,0,1.84-3.45c0-.6,0-1.2,0-1.8q0-24.84,0-49.67A4.17,4.17,0,0,0-357,93q-26.37-39.13-52.81-78.21a62.68,62.68,0,0,0-4.69-6.06c-2.64-3-6.15-4.32-10.09-4.6-0.4,0-.8,0-1.2-0.07C-427.32,3.91-427.54,3.56-427,1.93Z" transform="translate(594.08 -1.9)"/></svg>